<?xml version="1.0" encoding="utf-8"?>
<!-- Generator: Adobe Illustrator 27.5.0, SVG Export Plug-In . SVG Version: 6.00 Build 0)  -->
<svg version="1.1" id="Ñëîé_1" xmlns="http://www.w3.org/2000/svg" xmlns:xlink="http://www.w3.org/1999/xlink" x="0px" y="0px"
	 viewBox="0 0 3000 2000" style="enable-background:new 0 0 3000 2000;" xml:space="preserve">
<rect y="0" style="fill:#E6E6E6;" width="3000" height="2000"/>
<path style="fill:#F2F2F2;" d="M3000,0v419.53c-29.62,80.21-63.8,151.71-101.89,213.09c-41.01,66.1-87.68,122.28-138.7,166.98
	c-43.52,38.12-91.39,68.92-142.3,91.53c-225.31,100.09-443.642-28.545-648.842-96.495c-183.61-60.8-356.418-61.705-465.988,19.805
	c-85.06,63.27-92.979,171.15-102.15,296.08c-5.38,73.19-10.94,148.87-33.12,221.37c-27.1,88.54-74.5,156.34-144.92,207.28
	c-61.69,44.62-131.87,69.04-214.561,74.65c-69.29,4.7-139.77-3.72-214.39-12.64c-142.54-17.03-304.09-36.34-494.05,38.17
	C190.82,1681.82,90.52,1747.65,0,1835.54v-195.58c76.53-58.35,158.4-104.74,244.94-138.68c224.68-88.13,413.82-65.52,565.79-47.36
	c137.59,16.44,216.42-20.207,303.84-83.447c98.85-71.5,127.88-137.823,137.64-270.823c5.12-69.67,10.41-141.71,30.33-209.59
	c24.5-83.51,67.43-147.17,131.22-194.62c79.11-58.85,174.45-80.87,291.44-67.32c95.25,11.04,192.5,43.24,295.46,77.34
	c188.46,62.41,383.33,126.94,556.24,50.13C2751.96,668.94,2885.3,414.8,2953.41,0H3000z"/>
<g>
	<path style="fill:#CCCCCC;" d="M509.18,1776.81v39.55H214.52V2000h-39.55v-203.41c0-10.93,8.86-19.78,19.78-19.78H509.18z"/>
	<path style="fill:#CCCCCC;" d="M3000,1104.46v39.55H1771.57l-29.43,37.76l-121.62,156.04l-19.78,25.38l-347.03,445.24l-0.24,0.31
		c-3.75,4.81-9.5,7.62-15.6,7.62H739.54v-39.55h488.68l66.27-85.03l15.42-19.78l290.83-373.15l19.78-25.38l116.17-149.05l9.62-12.34
		c3.75-4.81,9.5-7.62,15.6-7.62H3000z"/>
	<path style="fill:#CCCCCC;" d="M2710.12,0v551.75c0,10.93-8.86,19.78-19.78,19.78H1310.66l-9.77,10.34l-280.6,296.95l-13.59,14.38
		l-102.48,108.45l-19.78,20.94L660.38,1259.7l-16.74,17.72l-1.94,2.05l-3.96,4.19c-3.73,3.95-8.93,6.19-14.37,6.19H0v-39.55h614.85
		l8.51-9.01l20.28-21.46l230.19-243.61l13.59-14.38l91.3-96.61l13.59-14.38l283.58-300.11l11.88-12.57
		c3.74-3.95,8.93-6.19,14.37-6.19h1368.43V0H2710.12z"/>
	<path style="fill:#CCCCCC;" d="M2710.12,1124.24V2000h-39.55v-810.34l-46.6,70.04l-13.16,19.77l-83.54,125.57l-13.17,19.78
		l-83.54,125.57l-13.16,19.77l-85.52,128.54l-13.16,19.78l-80.92,121.61l-13.16,19.78L2131.4,2000h-47.5l569.53-855.99l17.14-25.76
		l3.31-4.97c3.74-5.61,9.97-8.82,16.47-8.82c1.9,0,3.82,0.28,5.71,0.85C2704.41,1107.83,2710.12,1115.52,2710.12,1124.24z"/>
	<rect x="604.09" y="1912.26" style="fill:#CCCCCC;" width="39.55" height="87.74"/>
	<path style="fill:#CCCCCC;" d="M643.64,1269.58v412.32h-39.55v-404.05l-27.9-27.55L0,681.34v-55.58l106.29,104.96l20.03,19.77
		l327.48,323.37l19.77,19.52l130.52,128.88l19.27,19.03l14.4,14.22c1.27,1.26,2.35,2.67,3.22,4.19
		C642.71,1262.68,643.64,1266.08,643.64,1269.58z"/>
	<path style="fill:#CCCCCC;" d="M1781.69,1124.24V2000h-39.55v-868.8l-5.45-6.78l-116.17-144.63l-19.78-24.63l-238.11-296.44
		l-12.57-15.64l-49.17-61.21l-25-31.13l-78.64-97.9l-12.52-15.59l-137.6-171.31l-15.89-19.78l-84.08-104.67l-15.88-19.77L833.51,0
		h50.73l97.77,121.72l15.88,19.77l84.08,104.67l15.88,19.78l213.7,266.04l31.77,39.55l284.32,353.97l15.89,19.78l127.86,159.18
		l5.94,7.39C1780.15,1115.37,1781.69,1119.73,1781.69,1124.24z"/>
	<rect x="1866.72" y="0" style="fill:#CCCCCC;" width="39.55" height="551.75"/>
	<polygon style="fill:#CCCCCC;" points="1253.71,1808.43 1253.47,1808.74 1110.37,2000 1060.98,2000 1198.38,1816.36 
		1222.04,1784.74 	"/>
	<rect x="2670.568" y="551.755" style="fill:#CCCCCC;" width="39.55" height="572.484"/>
	<rect x="604.09" y="0" style="fill:#CCCCCC;" width="39.55" height="1269.58"/>
	<rect y="246.16" style="fill:#CCCCCC;" width="2690.34" height="19.78"/>
	<path style="fill:#CCCCCC;" d="M1694.68,0v359.94c0,2.62-1.05,5.13-2.9,6.99l-63.85,63.84v120.98h-19.77V426.68
		c0-2.62,1.04-5.14,2.9-6.99l63.84-63.85V0H1694.68z"/>
	<path style="fill:#CCCCCC;" d="M2202.852,551.755h19.775V390.589h124.621v161.166h19.775V380.702c0-5.461-4.427-9.888-9.887-9.888
		H2212.74c-5.461,0-9.887,4.427-9.887,9.888V551.755z"/>
	<path style="fill:#CCCCCC;" d="M2505.45,0v380.7c0,5.46-4.43,9.89-9.89,9.89h-138.42v-19.78h128.53V0H2505.45z"/>
	<path style="fill:#CCCCCC;" d="M2367.02,0v114.73c0,5.46-4.42,9.89-9.88,9.89h-134.47v131.43h-19.78V114.73
		c0-5.46,4.43-9.89,9.89-9.89h134.47V0H2367.02z"/>
	<rect x="1492.97" y="0" style="fill:#CCCCCC;" width="19.78" height="551.75"/>
	<path style="fill:#CCCCCC;" d="M2592.59,343.13v316.4c0,5.46-4.43,9.89-9.89,9.89h-531.09c-5.46,0-9.88-4.43-9.88-9.89V0h19.77
		v649.64h511.31V343.13H2592.59z"/>
	<path style="fill:#CCCCCC;" d="M1502.86,121.72v19.77H373.85l-54.42,54.42c-1.85,1.86-4.36,2.9-6.99,2.9H0v-19.78h308.35
		l54.41-54.41c1.86-1.86,4.37-2.9,7-2.9H1502.86z"/>
	<rect x="232.32" y="0" style="fill:#CCCCCC;" width="19.77" height="188.92"/>
	<rect x="110.7" y="0" style="fill:#CCCCCC;" width="19.78" height="188.92"/>
	<rect x="470.61" y="0" style="fill:#CCCCCC;" width="19.77" height="256.05"/>
	<path style="fill:#CCCCCC;" d="M623.863,1279.472h456.801c5.461,0,9.887-4.427,9.887-9.888v-303.75l286.495-323.392l-14.802-13.113
		l-288.981,326.198c-1.602,1.808-2.487,4.141-2.487,6.557v297.613H623.863V1279.472z"/>
	<path style="fill:#CCCCCC;" d="M884.44,1269.584h19.775V982.848c0-2.608-1.03-5.11-2.867-6.962L630.884,703.132l-14.042,13.924
		L884.44,986.919V1269.584z"/>
	<path style="fill:#CCCCCC;" d="M1073.672,960.177l13.983-13.983L908.474,767.013l303.331-330.003l-14.559-13.382L887.5,760.61
		c-3.586,3.901-3.459,9.936,0.288,13.683L1073.672,960.177z"/>
	<path style="fill:#CCCCCC;" d="M1114.57,529.81l-14.92,12.98l-5.8-6.67L946.63,366.86H0v-19.78h951.14c2.86,0,5.58,1.24,7.46,3.4
		l148.72,170.99L1114.57,529.81z"/>
	<path style="fill:#CCCCCC;" d="M963.489,692.084l14.379-13.576L813.406,504.32V356.972h-19.775V508.25
		c0,2.524,0.965,4.953,2.698,6.788L963.489,692.084z"/>
	<path style="fill:#CCCCCC;" d="M630.786,1040.03l270.916-265.669c1.874-1.837,2.94-4.343,2.964-6.967s-0.995-5.149-2.833-7.021
		L630.917,484.552c-1.859-1.893-4.401-2.959-7.054-2.959H326.25c-5.461,0-9.887,4.427-9.887,9.887v134.43h-142.38V356.972h-19.775
		v278.827c0,5.461,4.427,9.888,9.887,9.888H326.25c5.461,0,9.887-4.427,9.887-9.888v-134.43h283.578L880.792,767.17L616.94,1025.911
		L630.786,1040.03z"/>
	<rect x="453.799" y="635.798" style="fill:#CCCCCC;" width="19.775" height="465.126"/>
	<path style="fill:#CCCCCC;" d="M456.909,858.552l13.554-14.4L352.802,733.405c-1.834-1.726-4.258-2.688-6.777-2.688H88.157v19.775
		h253.947L456.909,858.552z"/>
	<path style="fill:#CCCCCC;" d="M252.09,1100.51v295.63c0,5.46-4.42,9.89-9.88,9.89H0v-19.77h232.32v-281.41l-15.45-14.23L0,890.94
		v-26.88l248.9,229.17C250.94,1095.11,252.09,1097.74,252.09,1100.51z"/>
	<rect x="0" y="1090.62" style="fill:#CCCCCC;" width="242.21" height="19.78"/>
	<path style="fill:#CCCCCC;" d="M1927.03,935.39V2000h-19.77V945.28h-286.74V2000h-19.78V935.39c0-5.46,4.43-9.89,9.89-9.89h306.51
		c2.57,0,4.92,0.99,6.68,2.6l0.021,0.02C1925.8,929.92,1927.03,932.51,1927.03,935.39z"/>
	<path style="fill:#CCCCCC;" d="M3000,601.86v27.97l-142.56,142.56l-19.77,19.77l-127.55,127.55l-120.56,120.56
		c-1.85,1.85-4.37,2.89-6.99,2.89h-558.64c-2.48,0-4.86-0.93-6.68-2.6l-90.22-82.69l-16.57-15.19l13.36-14.58l0.021,0.02
		l103.93,95.27h550.7L3000,601.86z"/>
	<path style="fill:#CCCCCC;" d="M1761.91,1324.954h376.837c5.461,0,9.887-4.427,9.887-9.887v-281.793h-19.775v271.905H1761.91
		V1324.954z"/>
	<rect x="2582.57" y="1259.7" style="fill:#CCCCCC;" width="417.43" height="19.77"/>
	<rect x="2495.56" y="1405.04" style="fill:#CCCCCC;" width="504.44" height="19.78"/>
	<rect x="2390.75" y="1550.39" style="fill:#CCCCCC;" width="609.25" height="19.77"/>
	<rect x="2298.8" y="1698.7" style="fill:#CCCCCC;" width="701.2" height="19.78"/>
	<rect x="2212.78" y="1840.09" style="fill:#CCCCCC;" width="787.22" height="19.78"/>
	<rect x="2837.666" y="768.29" style="fill:#CCCCCC;" width="19.775" height="244.22"/>
	<path style="fill:#CCCCCC;" d="M2138.623,1324.954h218.513c3.168,0,6.144-1.518,8.003-4.082l138.425-190.828l-16.007-11.611
		l-135.463,186.746h-213.47V1324.954z"/>
	<path style="fill:#CCCCCC;" d="M2051.613,1718.475h87.01c3.643,0,6.991-2.003,8.713-5.213l131.503-245.116
		c1.644-3.064,1.558-6.767-0.228-9.751c-1.785-2.984-5.007-4.811-8.485-4.811h-352.982v19.775h336.457L2132.707,1698.7h-81.094
		V1718.475z"/>
	<rect x="2041.73" y="1560.28" style="fill:#CCCCCC;" width="19.77" height="439.72"/>
	<path style="fill:#CCCCCC;" d="M757.8,1776.81c-8.85-58.55-55.47-104.89-114.16-113.32c-6.3-0.9-12.74-1.37-19.28-1.37
		c-6.89,0-13.65,0.52-20.27,1.52c-58.23,8.8-104.37,54.95-113.18,113.17c-1,6.62-1.52,13.38-1.52,20.27
		c0,6.54,0.47,12.98,1.37,19.28c8.43,58.69,54.78,105.31,113.33,114.16c6.62,1,13.38,1.52,20.27,1.52c6.54,0,12.98-0.47,19.28-1.37
		c59.02-8.48,105.83-55.29,114.31-114.31c0.9-6.3,1.37-12.74,1.37-19.28C759.32,1790.19,758.8,1783.43,757.8,1776.81z
		 M624.36,1892.49c-52.61,0-95.42-42.8-95.42-95.41c0-52.61,42.81-95.41,95.42-95.41c52.61,0,95.41,42.8,95.41,95.41
		C719.77,1849.69,676.97,1892.49,624.36,1892.49z"/>
	<path style="fill:#CCCCCC;" d="M1761.91,1672.01v19.78h-293.66V2000h-19.77v-318.1c0-2.15,0.69-4.14,1.86-5.76
		c1.78-2.5,4.71-4.13,8.02-4.13H1761.91z"/>
	<polygon style="fill:#CCCCCC;" points="1466.4,1687.66 1448.48,1712.64 1242.31,2000 1217.97,2000 1450.33,1676.13 
		1450.34,1676.14 	"/>
	<path style="fill:#CCCCCC;" d="M1327.26,1672v19.78H917.67V2000h-19.78v-318.11c0-5.46,4.43-9.89,9.89-9.89H1327.26z"/>
	<rect x="355.91" y="1708.59" style="fill:#CCCCCC;" width="19.78" height="291.41"/>
</g>
</svg>
