<?xml version="1.0" encoding="UTF-8"?>
<svg id="Calque_2" data-name="Calque 2" xmlns="http://www.w3.org/2000/svg" viewBox="0 0 830 462">
  <g id="Calque_1-2" data-name="Calque 1">
    <path d="M797.98,1c17.1,0,31.02,13.92,31.02,31.02v271.96c0,17.1-13.92,31.02-31.02,31.02h-47.58c-31.1,0-56.4,25.3-56.4,56.4v38.58c0,17.1-13.92,31.02-31.02,31.02H32.02c-17.1,0-31.02-13.92-31.02-31.02V32.02C1,14.92,14.92,1,32.02,1h765.96M797.98,0H32.02C14.34,0,0,14.34,0,32.02v397.96c0,17.68,14.34,32.02,32.02,32.02h630.96c17.68,0,32.02-14.34,32.02-32.02v-38.58c0-30.59,24.8-55.4,55.4-55.4h47.58c17.68,0,32.02-14.34,32.02-32.02V32.02c0-17.68-14.34-32.02-32.02-32.02h0Z"/>
  </g>
</svg>