<?xml version="1.0" encoding="UTF-8"?>
<svg id="Calque_2" data-name="Calque 2" xmlns="http://www.w3.org/2000/svg" viewBox="0 0 899.81 812.72" width="64" height="64">
  <defs>
    <style>
      .cls-1 {
        fill: #9bc0d2;
      }

      .cls-2 {
        fill: #cdcfc4;
      }

      .cls-3 {
        fill: #7cbdc0;
      }

      .cls-4 {
        fill: #1e919f;
      }

      .cls-5 {
        fill: #f6f6f2;
      }

      .cls-6 {
        fill: #051022;
      }

      .cls-7 {
        fill: #03132a;
      }

      .cls-8 {
        fill: #0b192f;
      }

      .cls-9 {
        fill: #071528;
      }

      .cls-10 {
        fill: #09172b;
      }

      .cls-11 {
        fill: #9ab1b6;
      }

      .cls-12 {
        fill: #dfd9da;
      }

      .cls-13 {
        fill: #f4b1e0;
      }

      .cls-14 {
        fill: #061122;
      }

      .cls-15 {
        fill: #0d192e;
      }

      .cls-16 {
        fill: #0c1527;
      }

      .cls-17 {
        fill: #dfdcd2;
      }

      .cls-18 {
        fill: #d7d4cf;
      }

      .cls-19 {
        fill: #f4bcdc;
      }

      .cls-20 {
        fill: #d5d6cf;
      }

      .cls-21 {
        fill: #86c4ca;
      }

      .cls-22 {
        fill: #041938;
      }

      .cls-23 {
        fill: #c0bab0;
      }

      .cls-24 {
        fill: #ba398d;
      }

      .cls-25 {
        fill: #050914;
      }

      .cls-26 {
        fill: #e35f82;
      }

      .cls-27 {
        fill: #48a5ac;
      }

      .cls-28 {
        fill: #091a35;
      }

      .cls-29 {
        fill: #5fd4db;
      }

      .cls-30 {
        fill: #d7d7da;
      }

      .cls-31 {
        fill: #fbf5fa;
      }

      .cls-32 {
        fill: #1d8691;
      }

      .cls-33 {
        fill: #f9f9f8;
      }

      .cls-34 {
        fill: #f24fa3;
      }

      .cls-35 {
        fill: #bcbdba;
      }

      .cls-36 {
        fill: #0a192e;
      }

      .cls-37 {
        fill: #cccdc6;
      }

      .cls-38 {
        fill: #e9bdd7;
      }

      .cls-39 {
        fill: #72a1b5;
      }

      .cls-40 {
        fill: #f5f6fc;
      }

      .cls-41 {
        fill: #0a192a;
      }

      .cls-42 {
        fill: #183146;
      }

      .cls-43 {
        fill: #a1a7b2;
      }

      .cls-44 {
        fill: #75b6bd;
      }

      .cls-45 {
        fill: #071529;
      }

      .cls-46 {
        fill: #09172c;
      }

      .cls-47 {
        fill: #0d182a;
      }

      .cls-48 {
        fill: #d8f7f8;
      }

      .cls-49 {
        fill: #84cccf;
      }

      .cls-50 {
        fill: #bbb8b2;
      }

      .cls-51 {
        fill: #7f276f;
      }

      .cls-52 {
        fill: #68b8bd;
      }

      .cls-53 {
        fill: #fbf9fc;
      }

      .cls-54 {
        fill: #84cbd0;
      }

      .cls-55 {
        fill: #f6f9f7;
      }

      .cls-56 {
        fill: #b9d6da;
      }

      .cls-57 {
        fill: #fcf9fd;
      }

      .cls-58 {
        fill: #7ec0c6;
      }

      .cls-59 {
        fill: #adafa9;
      }

      .cls-60 {
        fill: #fbfdfc;
      }

      .cls-61 {
        fill: #86a8b7;
      }

      .cls-62 {
        fill: #6d9cae;
      }

      .cls-63 {
        fill: #78b1b2;
      }

      .cls-64 {
        fill: #d39cc7;
      }

      .cls-65 {
        fill: #f8fcfb;
      }

      .cls-66 {
        fill: #a4cbd7;
      }

      .cls-67 {
        fill: #b3aeab;
      }

      .cls-68 {
        fill: #c4c3be;
      }

      .cls-69 {
        fill: #8a2672;
      }

      .cls-70 {
        fill: #fdfefd;
      }

      .cls-71 {
        fill: #aaccda;
      }

      .cls-72 {
        fill: #417891;
      }

      .cls-73 {
        fill: #80c2c7;
      }

      .cls-74 {
        fill: #5d656f;
      }

      .cls-75 {
        fill: #fbfdfd;
      }

      .cls-76 {
        fill: #eef6f8;
      }

      .cls-77 {
        fill: #e8ebdf;
      }

      .cls-78 {
        fill: #97c8d7;
      }

      .cls-79 {
        fill: #dbded9;
      }

      .cls-80 {
        fill: #f9fcfc;
      }

      .cls-81 {
        fill: #040c1e;
      }

      .cls-82 {
        fill: #f165a7;
      }

      .cls-83 {
        fill: #6db5ba;
      }

      .cls-84 {
        fill: #abafac;
      }

      .cls-85 {
        fill: #d3e3e8;
      }

      .cls-86 {
        fill: #fafdfc;
      }

      .cls-87 {
        fill: #85c9cd;
      }

      .cls-88 {
        fill: #0e192b;
      }

      .cls-89 {
        fill: #85a5b4;
      }

      .cls-90 {
        fill: #5499a7;
      }

      .cls-91 {
        fill: #a5ccd1;
      }

      .cls-92 {
        fill: #547083;
      }

      .cls-93 {
        fill: #dcd9d2;
      }

      .cls-94 {
        fill: #0b1c32;
      }

      .cls-95 {
        fill: #e2e8e9;
      }

      .cls-96 {
        fill: #f3ade9;
      }

      .cls-97 {
        fill: #d5f5f9;
      }

      .cls-98 {
        fill: #09182e;
      }

      .cls-99 {
        fill: #111c2e;
      }

      .cls-100 {
        fill: #d0d0cf;
      }

      .cls-101 {
        fill: #ed3b86;
      }

      .cls-102 {
        fill: #dee3e4;
      }

      .cls-103 {
        fill: #e3e6dc;
      }

      .cls-104 {
        fill: #e6eef3;
      }

      .cls-105 {
        fill: #f3f7f7;
      }

      .cls-106 {
        fill: #d1e2ea;
      }

      .cls-107 {
        fill: #71b4bd;
      }

      .cls-108 {
        fill: #0e2749;
      }

      .cls-109 {
        fill: #5cd2d3;
      }

      .cls-110 {
        fill: #b18da7;
      }

      .cls-111 {
        fill: #97b1c2;
      }

      .cls-112 {
        fill: #4e727e;
      }

      .cls-113 {
        fill: #061024;
      }

      .cls-114 {
        fill: #08172a;
      }

      .cls-115 {
        fill: #090f1b;
      }

      .cls-116 {
        fill: #7b3373;
      }

      .cls-117 {
        fill: #fafcfd;
      }

      .cls-118 {
        fill: #8caabf;
      }

      .cls-119 {
        fill: #cae3ef;
      }

      .cls-120 {
        fill: #408d9a;
      }

      .cls-121 {
        fill: #a8a8a6;
      }

      .cls-122 {
        fill: #ebecf0;
      }

      .cls-123 {
        fill: #fdfdfe;
      }

      .cls-124 {
        fill: #e6f0ef;
      }

      .cls-125 {
        fill: #f860aa;
      }

      .cls-126 {
        fill: #2793a1;
      }

      .cls-127 {
        fill: #6d818e;
      }

      .cls-128 {
        fill: #3b95a3;
      }

      .cls-129 {
        fill: #8c3d78;
      }

      .cls-130 {
        fill: #628196;
      }

      .cls-131 {
        fill: #f3f9fb;
      }

      .cls-132 {
        fill: #16273e;
      }

      .cls-133 {
        fill: #7ec3c7;
      }

      .cls-134 {
        fill: #c4c4ce;
      }

      .cls-135 {
        fill: #c6d9e3;
      }

      .cls-136 {
        fill: #88c9ce;
      }

      .cls-137 {
        fill: #b92f87;
      }

      .cls-138 {
        fill: #e4baca;
      }

      .cls-139 {
        fill: #8f397d;
      }

      .cls-140 {
        fill: #bcecf8;
      }

      .cls-141 {
        fill: #4c809a;
      }

      .cls-142 {
        fill: #83b2c2;
      }

      .cls-143 {
        fill: #97bdcd;
      }

      .cls-144 {
        fill: #306f7a;
      }

      .cls-145 {
        fill: #3f6883;
      }

      .cls-146 {
        fill: #0c182c;
      }

      .cls-147 {
        fill: #f0f5f7;
      }

      .cls-148 {
        fill: #041022;
      }

      .cls-149 {
        fill: #eb70a4;
      }

      .cls-150 {
        fill: #e2edef;
      }

      .cls-151 {
        fill: #ecfbfd;
      }

      .cls-152 {
        fill: #071425;
      }

      .cls-153 {
        fill: #2e7b88;
      }

      .cls-154 {
        fill: #4b93a3;
      }

      .cls-155 {
        fill: #6bafb5;
      }

      .cls-156 {
        fill: #061429;
      }

      .cls-157 {
        fill: #70e0e6;
      }

      .cls-158 {
        fill: #6de7e8;
      }

      .cls-159 {
        fill: #78bdc3;
      }

      .cls-160 {
        fill: #090c17;
      }

      .cls-161 {
        fill: #95bccc;
      }

      .cls-162 {
        fill: #f9fcfd;
      }

      .cls-163 {
        fill: #eaedf0;
      }

      .cls-164 {
        fill: #fefefe;
      }

      .cls-165 {
        fill: #f9fbfa;
      }

      .cls-166 {
        fill: #468a91;
      }

      .cls-167 {
        fill: #56889a;
      }

      .cls-168 {
        fill: #b9beba;
      }

      .cls-169 {
        fill: #bbced8;
      }

      .cls-170 {
        fill: #f4f7f6;
      }

      .cls-171 {
        fill: #66eaef;
      }

      .cls-172 {
        fill: #0b1729;
      }

      .cls-173 {
        fill: #44778c;
      }

      .cls-174 {
        fill: #fd77b1;
      }

      .cls-175 {
        fill: #9ee9ee;
      }

      .cls-176 {
        fill: #2c667d;
      }

      .cls-177 {
        fill: #475b6e;
      }

      .cls-178 {
        fill: #f7fbfb;
      }

      .cls-179 {
        fill: #fdfefe;
      }

      .cls-180 {
        fill: #bc478d;
      }

      .cls-181 {
        fill: #fcfdfd;
      }

      .cls-182 {
        fill: #fdfdfd;
      }

      .cls-183 {
        fill: #e0dcd3;
      }

      .cls-184 {
        fill: #cccfcc;
      }

      .cls-185 {
        fill: #eafafa;
      }

      .cls-186 {
        fill: #f8aec8;
      }
    </style>
  </defs>
  <g id="Calque_1-2" data-name="Calque 1">
    <g>
      <path class="cls-94" d="M858.03,510.21c.53,2.37.61,4.08,1,6l-1.04.92c-4.55-2.75-8.54-4.06-11.96-3.92l-.57,2.23c-5.52.92-12.92,3.44-16.59,7.88-.98,1.18-10.6,17.98-9.98,18.84l11.28-4.29,1.86,1.34c3.86.87,7.98,1.06,12.36.59l.64,2.41-.95,2.75-12.17,7.05c-4.36,1.27-10.53,5.72-3.37,3.48,8.53-2.68,19.65-11.56,26.5-17.28,1.68-3.16,3.18-6.61,4.5-10.34l2.5.34c.26,1.69-.56,4.44.22,5.79.19.33,2.77,1.41,3.84,2.65,27.51,32.22,34.27,97.89,33.7,138.79-.14,10.4-4.62,24.33-13.44,30.59-1.9,1.35-8.82,3.98-9.12,4.39-.49.65-2.81,13.02-3.7,15.79-6.45,20.16-21.19,48.3-40.28,58.72-11.2,6.12-23.42,6.44-35.21,10.78,1.14,1.67,2.73,1.43,4.44,1.56,22.12,1.64,49.99-3.54,70.82.18,4.46.8,8.17,3.56,5.6,8.12-2.69,4.77-9.33,5.23-14.37,5.63-64.57,5.07-134.92-4.63-199.94,1.06-118.11-.76-237.36,0-356,0-94.54,0-189.46.95-283.79-1.31-11.41-4.82-6.43-12.33,3.85-13.62,7.89-1,16.49.55,24.38-1.61-10.1-9.34-18.54-22.65-23.48-35.52-3.14-8.16-3.79-16.78-6.21-24.79-1.88-6.21-5.63-12.07-7.76-18.24-6.47-18.71-8.23-44.78-6.58-64.49.75-9,5.71-20.62,6.07-29.02.27-6.19-1.79-15.43-2.08-21.91-.24-5.36-.58-12.54,1.04-17.54,1.93,3,2.59,6.54,1.99,10.61,2.98-.26,5.99.54,9.01,2.39,1.37-1.27,2.03-.61,2,2,4.51,1.47,9.18,4.24,6.34,9.51-2,3.08-3.11,6.24-3.34,9.49l1.24,2.34c-5.06,13.41-7.36,27.68-8.95,41.78l-1.29.88c1.87,9.69,3.12,19.3,3.76,28.84,2.54-18.9,6.38-45.34,24.08-55.93,24.74-14.8,40.04,16.31,48.71,34.75s17.55,41.29,23.74,61.07l-1.3,2.27c.8-.4,1.52-.36,2.16.2l2.54,7.76,171.48-8.82c-2.38-9.78-3.9-19.59-4.56-29.46,1.12-.36,1.74-.87,1.38-1.68-3.49-23.24.49-49.61,6.15-72.59,6.64-26.95,26.36-61.39,58.95-53.04,4.28,1.1,13.17,4.99,14.89,8.64,3.78-3.22,12.4.57,10,6,.66.69.33,1.69-1,3,7.7,4.55,13.98,12.59,17,21,2.25,2.35,3.58,4.68,4,7,.82.48,1.61.99,2.31,1.61s1.33,1.2,1.68,1.92c9.67,19.83,15.67,42.67,19.97,64.27.16.79.01,1.64-.15,2.53s-.47,1.79-.8,2.67c1.4,1.56,2.43,3.32,3.09,5.3l4.89,26.66c29.79-1.81,59.97-3.61,90.52-5.4,5.83-6,12-11.52,18.5-16.56.4-1.21.84-2.41,1.39-3.55s1.1-2.2,1.86-3.12c12.91-15.58,26.11-31.34,39.22-46.47,4.96-7.23,10.8-11.85,17.52-13.86,2.88-3.31,7.51-5.01,13.89-5.08,11.28-.8,22.52-1.88,33.72-3.23l3.39,1.31c2.92-2.03,11.83,3.34,12.44,7.01l.16,15.92c.42,1.03,1.22,1.72,2.4,2.07l2.35-1.57c33.49-3.07,67.05-5.54,100.65-7.43,1.07-5.84,1.15-11.74.25-17.7-.04-4.75,3.79-6.09,7.9-6.47-.8-3.98-.19-6.59,1.84-7.83,2.16.73,3.08,3.13,2.74,7.21,7.35-.78,14.77-1.18,22.25-1.21l3.01,2.01c2.18,0,4.42,1.17,6,2.64,8.87,8.17,28.55,36.6,33.8,47.69,1.19,1.73,1.7,3.62,1.19,5.67,4.7,3.11,7.7,8.11,9,15,1.75.05,3.12,1.64,4.1,4.77,10.35-2.07,18.14-4.31,19.69-15.93l2.21-.84c-1.41-2.92-1.71-6.6-.92-11.06-7.59,1.99-14.72,1.97-21.38-.06-10.97-16.4-22.29-32.51-33.96-48.34l-.73-3.54c-6.93.8-3.67-3.95-.12-7.51,4.35-4.37,34.67-17.48,40.81-17.9.88-.06,1.67.75,2.31,1.41,2.3-.86,3.66,1.23,4.36,3.27,3.5,10.25,5.41,21.02,7.2,31.65-1.14-12.13-13.6-70.91-23.56-76.17-10.34,6.91-20.96,12.96-31.86,18.16-7.98-4.8-16.05-9.11-24.2-12.93l-37.49,12.62c-24.23,7.81-46.86,14.38-72.51,13.08-40.63-4.06-81.27-9.57-121.91-16.52-5.86,4.7-12.21,7.98-19.03,9.84l-6.72,2.89c-1.31.16-23.25-2.97-24.24-3.68-3.35-2.42-2.43-6.38,1.76-6.32,7.18,2.48,13.25,2.52,18.21.11-1.72-3.82,1.7-4.35,5-4l.14-1.13c3.02-.48,5.58-1.97,7.68-4.48l-5.31-7.02.49-2.38c-9.5-4.5-17.93-11.89-26-19-.28.85-.82,1.37-1.66,1.53-4.65-1.73-52.33-8.9-52.48-6.25s13.63,14.3,17.3,14.39c14,4.4,28.37,7.38,43.11,8.95l1.74,2.39c6.76-1.63,10.63.62,16,5,1.35-2.73,6.16,1.98,5.97,3.38-.52,3.73-10,3.91-12.97,2.62l-1.39,1.92c-18.63-2.37-38.6-5.17-56.55-10.91-14.96-4.79-27.8-19.98-35.06-33.01-3.49,1.38-7.08-8.34-3-9l13.13-.16c71.09,5.46,141.61,10.75,211.58,15.87,21.4,5.38,38.34,8.5,57.99-2.7,29.54-6.39,59.21-11.98,89-16.78l11.72-4,1.58,1.76c4.64-.6,9.19-1.71,13.67-3.32,6.59-1.36,11.19-1.29,14.33,5.32Z"/>
      <path class="cls-81" d="M535.03,126.21l15.75,3.22c1.58.99,11.82,15.38,3.25,11.78l-4.3.86c-46.36-11.08-95.04-8.23-141.67-.38-23.76,4-46.58,11.33-52.58,37.46l-1.45,1.06c2.44,3.08,1.73,12.2-1,15l2.13,2.69c-.52,40.87,54.6,45.99,84.87,41.31l.98-2.2c7.62-2.07,13.34-8.02,18.63-13.57,2.2.4,4.21-2.37,5.39-4.23l-.1-2.56c4.47-4.92,11.75-12.12,17.01-16.04,21.03-15.66,32.97-4.38,48.41,11.71.89.55,1.49.03,1.68-1.11-3.85-3.82-7.57-7.92-11.15-12.28l.15-2.72-1.32-.04c-24.49-24.91-47-.66-62.47,20.85-7.52,7.89-19.17,16.69-30.21,14.2-7.06,2.99-16.91,1.39-24.88-.04-6.71-1.21-16.91-3.06-21.12-7.96-13.42-5.54-15.89-24.26-14.33-37.79,3.27-28.35,18.82-32.17,43.6-37.29,33.36-6.89,70.43-9.52,104.58-5.71,18.09,2.02,37.58,5.02,53.15,14.78,5.97-.09,12.84,14.43,9,19,3.74,2.79,3.8,10.77,1.93,14.6.31,5.73-.66,10.53-2.93,14.4-.7,13.9-14.51,20.29-26.73,22.5l-.27,1.5c2.11-.02,3.6,1.89,4.46,5.72,11.85-2.54,21.66-9.25,25.65-21.03l2.88-2.69c-2.63-.16-2.49-1.11,0-2,7.66-2.98,4.39,8.93,2.98,13.49,1.21,7.89-2.4,11.57-9.77,13.27,1.36,2.37,1.29,4.12-.21,5.25.82,3.1.33,2.77,2,6,2.31,7.5-9.11,5.58-13,2l-1.25.62c-3.23-2.7-11.29,1.61-10.25,5.42,4.73,8.64,6.66,17.69,3.72,27.35-1.52,4.98-18.16,22.35-22.45,26.64-5.34,5.35-10.07,9.78-17.43,12.23-5.7,1.89-15.62,4.41-20.33.74-.52.5-1.06.96-1.66,1.32-3.52,2.05-25.34-1.69-28.34-6.32-4.75,2.49-14.52-2.72-18.78-6.32-3.29-1.9-4.7-4.13-4.22-6.68-2.33-2.47-.25-3.57,2.67-3.99,15.1.61,30.18,2.88,45.24,6.82,10.56,1.31,19.16,1.33,28.34-4.71,6.21-4.09,7.08-5.82.01-9.17-13.08,6.53-28.68,6.55-41.93,0-4.63-2.29-12.64-6.59-12.33-11.96-13.83-6.04-12.83-35.64,4.9-17.02,3.26,8.08,8.63,14.08,16.1,18.02l2.21-1.11c8.75,5.04,19.51,1.6,27.79-2.89l-1.4-1.82c3.07-13.89-5.77-19.9-18.27-21.04-4.12-1.22-12.05-5.51-9.33-10.14-1.7-4.31.72-12.45,4-6,1.36-1.64,7.24-1.22,8,1,3.27-1.08,6.68-.55,10,0l2.12-1.34c5.33,2.08,8.41,6.81,11.06,11.58,2.55-2.96,5.5-5.04,8.82-6.24-.12-2.43,2.1-4.56,6.66-6.41-4.28-6.91-10.66-12.53-19.13-16.86-5.64-6-11.93-10.5-18.87-13.49-6.91,2.67-12.87,7.31-17.91,13.91-10.27,14.99-23.23,25.56-38.88,31.71-3.72,1.88-6.68,1.93-8.87.14-14.23,4.25-34.13,4.49-47-3l-2.06,1.53c-17.69-5.12-36.75-13.68-42.19-32.93-4.11,1.21-7.37.68-9.76-1.6-5.5-1.21-10.37-.89-15.52.98l-1.48-1.98c-6.28-.87-12.72-1.02-19,0-.85,2.73-4.21,3.01-6,1,.41,1.63-.87,2.51-2,1-.92.71-2.25.68-2.35-.26-.48-4.41,12.79-11.93,17.32-9.27l7.6-1.85c.67-4.09,4.06-3.76,7.44-2.62l2.64-1.89,17.49.4-.31-20.21,2.18-2.29c-1.74-.84-1.49-1.65-.72-3.06l-14.4.04-1.88-1.98c-8.6-.26-17.01-.82-25.23-1.68l-.47-1.78c-12.62-1.86-1.03-15.85,2.48-8.07,3.07.43,6.2.14,9.22-.47,1.26-1.94,2.74-1.95,4,0,9.1-3.34,20.26-2.68,29.61-.99.23,1.61,1.12,1.59,2.39.99.45-6.55,3.25-12.38,9-17.03,27.96-22.66,96.62-27.78,132.34-27.31,9.62.13,40.52,1.11,46.04,5.62.61.5,1.13,1.1,1.62,1.73Z"/>
      <path class="cls-10" d="M364.03,2.21c10.46.11,15.02,5.68,3,10l-.3,2.25c-4.95,2.9-9.84,5.91-14.68,9.01l-2.01-1.26c-1.94,1.03-4.06,2.26-4,4l-1.08,4.03c-12.94,13.88-22.25,30.8-25.4,49.62l-2.52,3.35c.93,7.31,1.27,14.82,1.03,22.52,1.98,16.24,5.04,32.13,9.16,47.66-.52,6.29-13.03,6.59-12.18-.18-4.95-3.08-8.16-11.5-9.32-17.46-15.06,7.13-11.76,12.18-.39,21.66,1.09,2.6,2.66,4.53,4.71,5.8-2.74,1.46-10.57,2.45-11.49-1-9.21,8.05-1.88,5.56,1.26,8.23.94.8.77,3.25,1.37,3.64,2.58,1.68,18.9-1.75,22.87,1.13l-.77,1.99-23.49-.35-1.75,2.37,1.3.54c-1.04,6.71-1.36,13.66-.95,20.85l18.89.65c1.86.2,2.31,1.09,1.75,2.96-7.65-1.42-3.68,2.79-5.57,4.13-.39.28-8.09,2.15-9.28,2.33-1.96.29-4.04-.98-6.43-.28-.42.12-5.86,3.97-7.2,4.83-.38.24-3.52,2.6-1.51,3l.12,1.54c-7.91,7.36-9.13,17.29-7.12,27.46,1.95.35,3.83,2.07,5.63,5.18,1.86-8.94,6.29-12.82,7.37-1.18l2.21.39c.72,3.7,2.24,7.22,3.79,10.61,3.8.31,12.72,6.87,12,11,2.69,6.5-10.32,7.95-13,3-4.7,2.37-6.08,8.39-4.15,18.06.73,6.37-7.29,14.74-9.85,6.94l-1.31-.38c-1.37-4.24-2.6-8.44-3.69-12.62-25.73-2.55-46.75-18.06-64.73-36.61-.94-.97-1.51-1.94-1.27-3.39l-2.2-.27c-34.7-39.47-77.33-56.21-129.74-52.61-1.3,2.66-2.99,4.28-5.06,4.88l.03,3.61c-4.93,8.52-9.25,17.35-12.95,26.5l-3.08,1.89c1.25,1.45.68,3.79-1.72,7.03,9.07.13,18.11,1.33,27.12,3.62l2.6,2.36c-3.06,3.16,3.37,2.67,4,0l4.76-1.6c15.06.19,29.88.58,44.47,1.19l-.23,2.42c-5.06,1.87-10.74,2.63-17.03,2.28,1.65,1.8,2.29,3.6.45,5.56,4.99-.7,8.19.35,9.58,3.16l-3.4,1.86c-7.1.31-14.14.23-21.14-.24-.14,2.21-3.22,4.73-5.46,3.38-2.11,2.07-3.48.75-4.79-1.47-.95-4.02-5.96-9.03-9.21-5.53l.29,1.37c-9.96,1.01-20.06.88-30.3-.38l-.99,1.01c-.6,1.56.22,2.11,1.67,2.18l21.68.7c4.4,4.05-4.31,4.9-7.34,5.12-3.75-.1-18.77.13-21.07-1.43-2.62-1.78.42-8.72-.01-11.48-3.81-5.51-42.2,5.28-49.57,5.83-2.37.18-5.41.25-6.21-2.63-1.52-5.45,7.93-8.13,11.86-9.29.04-.53.11-1.04.33-1.48.35-.7,13.24-2.85,14.67-1.52,1.94-1.21,2.28-1.87,1-2-6.47,2.82-14,3.1-21,2-5.14-4.87,7.68-6.94,10.82-7.68,9.49-2.25,21.86-2.84,30.61-5.39,1.09-.32,3.52-1.48,3.56-2.42.09-2.04-3.02-.84-3.76-.8-11.75.58-23.92,4.23-35.73,5.33-7.08-3.67,2.41-6.91,6.51-8.03l1.26-1.78c3.57-.77,9.66-1.21,12.74-.22,4.47-1.16,9.14-2.16,14-3,1.7-1.2,1.7-2.2,0-3-2.76-.76-5.56-1.27-8.39-1.52l-.61-1.48c-4.18-.93-16.66-2.46-18.5-6-1.74-3.34-.24-4.68,3.12-4.94,10.92-.84,26.74,8.58,38.38,6.45-5.39-3.04-35.59-7.85-36.86-13.2-.32-1.35.52-2.92,1-4.17,11.96.79,22.99,7.2,35.05,8.2.83.07,3.85,1.15,3.79-.83-.05-1.72-27.22-7.59-32.37-11.61-4.03-3.14-2.06-7.88,4.45-6.46,8.55,1.87,20.58,9.55,29.73,10.37,1.86.17,3.52.51,4.21-1.79-6.68-2.01-36.33-10.14-37.05-17.56-.18-1.86.94-3.72,2.76-4.27,4.35-1.3,18.12,5.43,23.52,7.08,35.38,10.82,72.72,2.96,107.77,18.23,39.4,17.17,68.41,69.1,105.22,78.78,5.68,1.49,12.13,4.1,14.73-2.79-19.34-7.67-25.26-30.54-16.49-48.53,1.45-2.97,8.16-10.87,8.33-12.61.18-1.9-6.48-11.68-7.34-16.3-1.65-8.9,1.4-16.55,6.13-23.97,1.48-2.32,8.14-9.1,8.26-9.72.56-2.95-13.26-22.96-10.84-25.35,11.66,1.19,18.91-10.05,27.49-16.02-.71-35.85,5.91-67.19,30.51-93.99l9.52-4.92c1.24-.94,3.28-3.88,1.48-5.08,7.07-5.38,11.13-8.46,20-11Z"/>
      <path class="cls-45" d="M71.03,303.21c-7.07-2.5.31-5.5,4.91-5.89,5.87-5.06,9.5-3.94,11.09,3.89,1.21.26,2.13.86,2.25,2.1,24.15-4.28,48.89,1.1,70.1,13.85,21.16,15.1,43.65,26.85,67.48,35.24l3.18,2.8c.5,1.77,1.67,2.44,3.37,2.6l26,1.36c7.86,3.09,14.9,2.73,21.12-1.08,3.25-7.96,10.29-1.59,12.1,4.33l2.4,2.78c2.85-.61,7.78,6.62,6,9-1.95,2.9-4.31,4.52-7.07,4.85.56,2.79-.09,4.51-1.93,5.15-3.29,3.43-8.66-7.35-7-10l-2.14.7c-2.46-1.44-9.05.47-7.86,3.3,7.15,2.1,15.89,10.03,21.45,15.51-.24,3.05,2.79,3.93,4.55,1.49-1.9-.56-1.91-1.43,0-2,2.47-1.33,3.73.31,3.79,4.9-1.36,6.85.05,10.79,4.22,11.83,1.32,4.22,4.32,5.98,9,5.27,2.64-1.1,3.58.69,2,3,.49,4.43-2.84,7.62-6,10l-2.88-.9c-19.45-18.17-38.99-34.88-58.62-50.12-57.74,13.34-112.5,37.69-162.05,70.04l-18.48,45.3c-8.63,20.63-14.9,41.94-17.34,63.86l-2.63,2.83-.23,1.78c2.67.92,1.17,6.46-1.77,6.22.4.79.71,1.59.72,2.39.11,8.32-12.9,36.69-17.35,45.68l-3.37,2.94c-2.87-3.79,3.41-7.72,3.03-11.46-.33-3.22-4.34-4.21-5.75-5.84-.48-.56-.14-1.48-.28-1.7-1.41-2.27-.54-7.44,2-8,2.29-8.72,4.76-17.43,7.41-26.14l2.59-1.86-1.53-1.81c6.16-13.91,4.5-15.04-4.97-3.38-1.03,3.4-2.53,5.8-4.5,7.2.12,5.45-.23,11.03-1.03,16.75,1.36,6.41.7,11.49-1.97,15.25-1.82,3.11-6.89-1.8-7.99-1-.41.3-1.11,5.92-3,5.99.1-5.98-.18-12.02-.01-17.99.39-13.81.31-27.65,9.98-38.52,5.16-5.8,13.06-9.28,17.93-14.07,5.38-5.3,15.55-39.88,19.35-49.65,3.15-8.11,14.45-38.61,18.71-43.29,2.39-2.63,9.4-7.04,12.73-9.27,28.34-18.92,64.13-35.96,96.06-47.94,5.14-1.93,38.27-11.93,39.24-13.77s-1.41-1.53-2.19-1.76c-4.74-1.41-9.93-1.8-14.79-3.23-37.16-10.89-58.6-43.72-100.47-46.53-31.21-2.1-45.47,9.71-72.3,18.79-3,1.01-12.1,5.13-13.59,1-2.37-6.59,10.99-10.76,15.34-12.74.85-.63.52-.96-1-1-2.57.94-8.01,1.67-8.03-2.5-.02-3.37,11.96-7.02,15.03-7.99,4.3-1.36,28.9-6.43,29.99-7.52,2.86-2.84-4.15-1.17-5-.99Z"/>
      <path class="cls-6" d="M577.03,247.21c9.66,18.74,13.02,28.86-1.97,46.53-1.66,1.96-4.9,3.42-5.8,5.2-1.39,2.74-.87,7.27-1.68,10.32-2.31,8.76-8.31,16.2-15.46,21.55,5.19,9.49,9.52,18.18,9.97,29.35,9.93.66,20.6-.72,30.43.07,4.97.4,12.76,3.31,17.03,3.07,3.3-.19,10.73-6.6,16.23-7.85,6.12-1.39,13.6-1.1,19.54.99,9.59,3.38,28.47,23.69,31.44,33.56,1.09,3.62,1.06,13.46,1.44,14.06.24.37,6.45,3.33,7.84,4.16,1.92,2.72-6.06,10.31-9,9-1.37,1.15-3.21,1.75-5,2,1.94,8.93,4.49,17.71,7.65,26.34l-1.65,1.66c4.92,2.37,2.83,8.03-2.73,9.37-2.79.67-10.5.77-11.82-.97-.41-.49-4.57-12.37-.45-10.4l-2.31-.83-4.11-13.22-5.56,1.37c.96,2.83.62,4.72-1.01,5.68.66,10.21-7.02,5.14-9.99-.79-2.98-.02-4.65-1.09-5.01-3.21l-6.34-6.01c-11.23-4.88-20.25-12.02-27.05-21.43-2.18,8.15.45,11.08,8.87,12.43l16.24,8.56,2.28,3.45c.8,2.62-4.4,8.76-7,9l-3.54.22c-18.93-11.41-38.87-9.73-59.46-5.22.61,2.51-4.24,4.95-6,3-4.28,1.89-6.3-.4-6.04-6.88-3.98-.06-5.83-1.36-1.96-4.12-.82-1.59-.15-3.13,2.01-4.63l.72-6.74c-9.19,10.08-21.36,17.4-34.44,21.4-1.25,2.79-1.97,5.76-2.18,8.91l-2.11,1.06c1.6,2.73-2.58,3.73-4.19,1.71-.82-1.03-.16-12.92.87-14.52,2.67-1.67,5.1-3.56,7.31-5.68-6.52-2.11-7.51-3.94-2.99-5.51l1.12-2.21c6.9-1.09,9.33-6.95,8.94-13.35l1.94-1.44c-.23-3.1-1.24-4.87-3.01-5.29-1.38-2.45-7.06-14.77-6.19-16.3,2.15-3.78,14.35,2.53,11.21,6.59l2.3.18,7.05,14.9c5.16-3.21,6.48-8.09,4.59-13.71,1.47-.41,1.82-1.53,1.06-3.36-2.86.23-4.89-5.01-3-7-2.11-3.86-2.88-12.83,1-15l.56-2.14c12.71-2.76,10.12-10.43,5.44-19.86-3.73,2.37-33.72,11.78-34.17,6.57-.04-.51.05-1.04.17-1.57l1.34-2.39c6.86-1.58,13.7-3.85,18.93-8.77l2.74.15c-.47-2.35-.41-3.05,2-2,1.09-3.27-.25-5.6-4-7-.74-1.91-.74-4.24,0-7l2.23-1.65c15.98,2.98,21.38-11.01,21.93-24.37-.05-4.45.3-8.82,1.03-13.13,18.43-2.12,18.23-19.7,8.5-32.2l.32-2.65c3.91.09,12.57,3.31,13-2Z"/>
      <path class="cls-14" d="M364.03,2.21c7.75-2.22,16.38-3.98,23.51.99,18.73,13.07.19,40.76-1.51,58,8.65-.72,16.83.76,25.32,1.88,6.78-10.04,14.97-17.22,26.33-21.73,10.91-4.34,17.48.8,24.35,9.36,1.76,2.19,2.73,7.3,5.52,7.55,2.34.21,8.28-3.63,11.48-4.56,6.61-1.9,16-3.43,22.28-.28,2.31,1.16,6.34,7.39,8.71,5.77.52-.36,3.52-10.32,4.01-12,1.91-.99,3.73.29,5.46,3.85,2.21-.31,3.72.07,4.54,1.15l1.14,2.93c-2.08,6.55-4.39,13.07-7.95,18.99,5.8-1.77,9.72-.23,14.91,2.04,1.28-1.76,2.58-2.74,3.9-2.95l1.8,1.48-1.67,8.65c1.15,6.78-.55,9.4-5.13,7.86l-2.41,1.26c-7.94-2.36-16.4-1.29-24.2,1.06l-2.39-1.33c-3.24-1.29-3.1-12.93,0-14.5l-2.15-.51c-1.66-3.86-3.79-7.72-6.74-10.71-12.29-.54-22.45,4.93-31.95,12.39-1.9,1.12-3.85,1.31-4.77-.8-.42-6.5-3.75-20.42-9.13-24.36-3.34-2.45-28.73,15.28-26.78,23.45-.18,7.84-4.14,8.36-11.87,1.56-3.74-1.87-20.34-4.22-22.99-1.9-1.93,1.69-1.76,29.31,3.73,31.92.84,2.29,1.34,3.95-1.36,4.46-1.29,3.24-12.93,3.1-14.5,0l-.9,2.05c-14.43,4.15-25.21,19.86-25.28,34.74l-2.32,1.21c-3.3,7.28-8.53-3.52-10.41-7.74-7-15.69-9.92-34.54-9.72-51.61l2.13-1.64-1.65-3.22c2.44-19.27,9.4-36.89,21.97-51.79,7.69-9.11,33.23-27.47,25.86-2.34-5.77,14.18-9.84,29.37-11.86,45.09-.52,4.08-2.49,24.75-1.42,25.71.32.28,8.2-1.49,8.34-1.9-.09-27.74,4.4-55.09,13.46-82.05-1.12-6.72-7.37-7.65-13.03-5.91l-1.68-1.58,4.54-3.96c3.14-4.93-5.91-2.22-7.54-6.04Z"/>
      <path class="cls-45" d="M514.03,47.21c3.07-10.58,2.06-23.71,4.95-32.55,5.98-18.28,26.79-13.41,37.58-2.48,23.3,23.61,22.43,66.08,13.77,95.84-.49,1.69-2.2,3.31-2.33,4.78-.16,1.94,2.65,5.44,3.02,8.92.44,4.12-1.57,10.54-1.05,12.8.16.71,9.85,6.96,11.6,8.66,23.42,22.71,22.45,79.56-6.55,98.05-.48-1.81-2.26-4.66-1.58-6,1.08-2.13,4.97-1.99,6.96-3.12,4.21-2.39,2.07-6.42,2.69-10.31.51-3.17,4.64-11.19-1.08-12.58l-1.51-2.18,2.18-9.28c1.33-4.91,1.78-9.75,1.33-14.54-2.58-.61-3.32-4.59-.79-5.51l-.21-2.49-2.37-2.01c-2.06-14.41-10.8-25.26-24.93-29.36l-1.7-2.64c3.18.25,2.23-.49.99-2.49-1.92-3.09-5.59-5.25-5.07-9.42-5.2.1-10-1.98-14.92-3.08l1.21-1.82,20.09,3.5c1.12-12.15-11.54-15.35-21.25-15.53l-.97-2.39c3-8.2,2.09-13.67-2.72-16.43l-.36-2.34c5.26-.54,2.69-5.94,3.18-8.23.86-4.07,1.29-6.06,1.82-9.77-2.65-.36-2.5-1.14,0-2l-1.57-2.84c2.71-11.66,4.42-22.68,2.68-34.49.29-16.96,10.28-9.26,15.33.96,9.81,19.89,10.19,42.69,4.89,63.49,8.49-21.63,6.2-51.16-7.2-71.81-18.17-22.04-20.35-4.44-20.08,14.03l-2.05,1.65c.5,5.61-.84,8.95-4,10-7.06,3.12-5.98-1.35-10-5Z"/>
      <path class="cls-10" d="M686.03,408.21c5.31,3.17,14.27,9.08,19.94,10.56,15.97,4.15,33.33.41,49.74,9.27,10.71,5.79,8.24,17.47,11.29,27.7,28.66,11.86,59.37,19.93,85.97,36.03,3.74,3.91,3.93,13.33,5.07,18.43-2.55.21-3.49-2.77-5.01-3.48-3.81-1.78-15.74,1.76-20.66,2.46-1.33.19-2.2-.99-2.33-.97l.24-2.48,11.69-4.52c-1.19-2.45-3.94-2.78-8.27-1-30.54,10.25-64.62,13.33-96.92,13.31l-1.75-1.3-10,1c-1.95,1.96-4.05,1.96-6,0l-19.36.66c-2.56.04-.28-6.52,2.86-2.66.08-.77.25-1.71.89-2,.95-.42,17.23-.76,17.11,2-.66-1.79-1.34-2.61-3.31-2.87l-10.1-.21c-3.53.03-8.42-2.55-4.09-4.92,3.3-1.96,6.7-1.95,10,0l10-1c3.05-2.97,8.89-2.85,12,0,3.28-.72,6.61-1.06,10-1l2.81-1.54c22.96-1.85,45.72-5.1,68.25-9.74-22.87-8.41-45.99-17.08-69.36-25.99-17.52-2.81-35.3-4.25-53.32-4.34l-2.38-1.38.92-2.09c4.54.99,8.12.37,10.74-1.87,7.06,2.8,15.67,4.53,17.98-4.79l2.36-.25.36-1.83-46.36-27.84v-2.33s9-9,9-9Z"/>
      <path class="cls-113" d="M106.03,263.21l.75,2.36c-3.08,6.03-6.66,11.57-10.75,16.64.39.42.67.8.58.99-1.14,2.41-4.73,8.4-6.29,10.99-.31.52-.66.91-1.29,1.02,1.51-.03,1.51.64,0,2,1.82,1.92.64,4.09-2,4-.05-.09-1.37.27-2.02-.68-.72-1.06-.8-3.12-1.95-3.86-2.86-1.84-4.75,1.19-7,2.08s-8.04-.25-5.03,4.47c-4.65,1.01-9.35,1.99-14,3-4.42.36-8.78.11-13.08-.76l-.92-2.24c5.32-1.66,33.72-6.76,35-8.01,1.43-1.4-.12-1.84-1.5-2.01-7.69-.92-31.98,8.83-36.56,5.59-1.57-1.12-1.82-6.32,1-6.08l41.06-7.49c0-1.81-4.31-1.07-5.48-.97-8.25.69-17.77,3.87-25.97,4.03-3.3.07-6.7.63-8.49-2.66-.37-2.2,3.34-3.47,4.89-3.94,10.95-3.33,26.58-2.19,38.05-5.46l-10.54-1.04c-3.99.7-24.47,2.94-25.45-1.48-.75-3.4,8.22-4.27,10.51-4.46,10.26-.84,21.15.14,31.48-1.02,1.62-1.24-.02-1.81-1.48-2-3.73-.48-8.57.11-12.52,0,2.91-2.64,7.12,1.36,6.01-4-.8-.78-18.59.04-22.3-.99-1.16-.32-.73-1.94-1.73-2.53.35-.83,1.82-.29,2.01-.48,6.19-1.06,12.87-.99,20.04.21,2.4.16,4.78.14,7.17.02,1.7-.08,5.79-.39,3.79-2.23-3.06-1.44,1.01-4.2,5.75-2.24,5.19,2.15,3.57,7.96,8.25,9.24Z"/>
      <path class="cls-132" d="M859.03,516.21c.75,3.69,2.36,7.85,3,12-3.91,2.84-.38,8.46-7,10-2.12,2.61-7.18,6.45-10,4-4.01-2.49-9.79,3.27-13-3l-.07-2.25c11.96-5.54,16.16-12.88,12.59-22.01l1.48-1.74c.1-.08-.41-1.76.66-2.04,3.69-.96,9.25,3.11,12.34,5.04Z"/>
      <path class="cls-42" d="M38.03,214.21c3.02.67,7.04.73,9,3l-.82,1.34c-3.8-.37-3.53.18.82,1.66-4.3,2.4-9.08,3.54-14,3v-.9c-5.89,1.01-11.56.98-17-.1-3.4-1.99-1.11-5.58,1.75-6.75,6.93-2.83,13.6,1.77,20.25-1.25Z"/>
      <path class="cls-108" d="M43.03,303.21l14,3c-4.26.92-8.54,1.82-12.78,2.73-1.87.4-10.56,5.12-10.09-.07.41-4.49,5.74-4.69,8.87-5.66Z"/>
      <path class="cls-14" d="M344.03,13.21c6.1-1.42,1.1,5.64-.31,6.69-1.04.77-9.26,4.84-10.69,3.31,4.23-4.6,6.1-6.27,11-10Z"/>
      <path class="cls-119" d="M28.03,242.21c1.67.35,1.34,1.02-1,2-4.48.91-10.87,1.78-15,3,.75-3.61-2.61-.74-5-3,6.95-.77,14.08-1.14,21-2Z"/>
      <path class="cls-89" d="M16.03,222.21l20.99-.99c.31.94-3.49,1.89-3.99,1.99-4.14.79-9.75.84-14,2l1-1.99c-1.8.3-2.58-.18-4-1.01Z"/>
      <path class="cls-43" d="M39.03,322.21c.76-.28,2.29-1.85,4-2.49,4.55-1.7,9.16-3.74,14-4.5-1.17,1.68-4.68,2.95-6.63,3.85-3.34,1.55-7.04,2.62-10.36,4.14l-1-1Z"/>
      <path class="cls-164" d="M747.03,794.22c.47.44.24,2.73-1.48,1.99l-273.53-1.51c1.11-4.26,5.38-5.81,8.03-8.97,7.35-8.76,12.73-18.88,16.24-29.76,1.53-4.74,1.05-12.5,5.89-14.11l87.34-3.66c16.85-2.74,34.1-1.94,51-3,14.52-.91,30.62-4.01,45.03-4.01,1.19,0,2.17.26,3.23.76,3.58,1.69,8.83,19.81,11.42,24.59,7.81,14.39,25.65,30.11,40.65,36.35,1.53.64,5.95,1.12,6.18,1.34Z"/>
      <path class="cls-164" d="M392.03,582.21l.78-3.3c5.06-5.08,36.78-28.8,42.7-29.41,20.33,11.25,36.95,18.59,61.35,23.72,15.94,3.35,33.99,6.27,50.11,8.33.7-1.49,2.72-2.6,6.06-3.33,6.1-4,12.38-7.91,18.61-11.72,24.12,2.54,47.84,7.69,71.89,10.72,17.19,2.16,38.97,5.22,56,6,19.83.91,41.46-5.85,60.49-11.49,14.67-4.35,28.95-10.11,43.62-14.47,6.68-.69,20.91,13.46,25.82,12.98l31.07-18.91c9.39,11.74,14.43,28.32,18,42.89,4.49,18.3,9.23,41.82,8.49,60.52-.05,1.21.75,3.72-.99,3.48-3.53-19.67-5.28-39.96-11.51-59-.5-1.52-2.05-2.75-2.5-3.99l-2.45-1.01c-1.17-5.71-3.2-10.99-6.09-15.83-25.26,13.36-50.71,26.17-78.99,30.05l-2.47-1.2-2.19-1.21c-1.15-7.83-6.62-9.37-13.6-9.33-34.06,2.15-68.42,3.82-103.07,5-3.21.68-7.03,1.51-8.01,5.03l-2.13.5c-.51,2.98-.87,6.05-1.08,9.2-40.44-1.05-82.85-6.52-123.1-15.24-35.43-7.68-70.72-16.72-99.81-39.53-5.06,4.6-30.2,24.12-34.81,23.26-1.43-.27-3.59-1.32-2.2-2.69Z"/>
      <path class="cls-156" d="M483.03,413.21l2.31-.87c7.15,4.13,14.98,8.02,23.27,8.93l1.42,1.93-1.49,2c15.4,2.44-1.33,9.67-1.55,10.66-.69,2.99.27,8.77-.95,12.34,1.05.3,2.43-1,2.99-1,3.33-1.01,6.78-2.11,10.37-3.3,7.19-6.68,15-12.53,23.44-17.55l2.2.85c-2.82,3.59,2.27.94,3.57,2.93s-1.09,7.88,4.43,8.07l-.08,1.97c-5.01,2.16-6.99,4.17-5.92,6.03,7.12-3.41,18.86-2.97,26.75-2.01l1.25,2.01c12.01-2.52,24-2.53,36,0l1.78-2.01h10.86c-1.79-1.05-2.33-2.38-1.64-3.99,1.73-4.23,3.64-6.09,7-9,2.13-1.46,4.13-.46,6,3,2.42,1.07,4.63.73,6,1.5,2.87,1.62,5.03,11.9,9,2.5,1.84.43,3.57,1.83,5.19,4.21,3.7.19,6.31,1.12,7.81,2.79.04.16-.72.9-.57,1.48.67,2.61,4.05,5.28,2.57,9.53,8.02-1.53,15.39,1.52,13-9.01,1.26-1.95,2.74-1.95,4,0,4.99-1.27,7.3-.34,6.93,2.79,1,1.59,14.21-3.13,15.97-4.42l2.61,1.48c2.92-1.53,5.75-1.81,8.49-.85,1.95-1.9,6.09.72,7,3l-3.5,6.98c-2.07,2.17-9.08,2.49-11.96,1.97-1.77-.32-3.02-2.23-4.99-2.01-.54.06-.44,1.85-1.22,2.04-2.81.67-7.23-.43-10.33.01-5.82.89-11.68,1.66-17.58,1.71-100.25.88-202.28,2.57-301.18,9.53-.04,11.85,7.76,13.95,18.66,16.3,26.91,5.81,52.89,10.2,80.96,11.19l5.14,2.28,11,1c.19-.89.52-.86,1,0l16,1c.92-1.94,2.09-1.95,3,0,6.98,4.47-5.3,4.54-9.82,3.95-15.76-2.27-31.39-2.9-46.89-1.91,1.55,3.44-.54,4.43-6.29,2.96l-1.38,2.02c-9.02-1.01-18.02-1.37-26.98-1.08,1.81,1.3,2.93,2.65,3.37,4.05,9.44.35,14.44,4.02,15,11l2.98.62c6.55,10.79,14.58,19.97,24.08,27.52l.93,2.86,3.29-.39c22.99,9.66,48.08,12.99,72.63,16.24l3.07,2.16c-1.15,1.29-.54,3.47-3.52,4.03-3.3.62-15.36-3-16.48-2.02-.33,1.62.42,2.08,1.62,2.87,3.87,2.55,16.63.29,21.93,3.16l7.44-1.04c-2.35,1.54-4.17,2.38-5.59,5.01-28.86-5.1-60.13-6.96-87.39-18.53-4.31-1.83-22.53-13.42-24.35-13.26s-7.1,3.71-8.98,4.96c-10.82,7.18-24.96,17.34-34.69,25.81-.33,2.4-4.72,7.17-7.54,9.07-.32.22-.86.12-1.46-.07-2.78-5.91-4.71-4.36-10-6-1.15-4.49,6.55-12.22,11-12l-.39-2.17,39.73-27.9c-8.21-10.98-15.67-22.36-22.38-34.14l-.53-6.4c-11.97-3.26-23.66-7.16-35.08-11.69-4.14-6.34-7.66-13.2-10.57-20.57-8.59-6.23-16.13-13.26-22.59-21.07l.82-2.05c.09-3.15,4.47-11.02,8-8,4.05-1.13,6.87,3.4,8,7l2.54-.21c3.89,6.6,10.06,8.91,18.5,6.92l20.05-1.77c9.73,1.01,19.03.7,27.9-.93l1.88.61c3.08,4.25,8.25,9.34,12.51,3.64-3.34-2.1-3.18-6.18.61-4.25l2.18-1.55c7.2.98,14.8,1.38,21.89-.1l1.93,1.65c2.45-2.14,5.94-2.78,10.48-1.91l2.15-9.97,2.37-1.12c-.9-2.76-.74-5.14.48-7.14-3.36-3.98-5.89-8.51-7.68-13.39l1.2-2.47c-.53-3.27,10-6.51,12-4,1.25-.26,2.25.74,3,3Z"/>
      <path class="cls-87" d="M392.03,582.21c1.16,2.07,3.06.86,4.53.03,6.25-3.51,15.79-9.96,21.8-14.2,2.05-1.45,9.45-8.83,11-8.69,28.28,22.27,62.83,32.18,97.64,39.4,14.18,2.94,30.53,5.97,44.8,8.2,9.42,1.47,77.4,10.14,80.24,7.27.54-.54-1.1-5.96,1-7.01.75.12,1.84.36,1.91.9.41,3,.9,18.59.66,21.57l-1.57,1.52c-12.5,3-25.61,2.13-38.37,4.13-3.85.6-9.21,1.23-12.63,2.87-2.13.78-2.79.44-2-1-.26-1.76.21-2.67,1.89-2.96-3.3-13.96-15.16-10.53-24.92-4.94l-1.98-1.1-5.59.58c-26.47-5.46-53.13-9.49-79.99-12.1l-2.42-1.48c-5.82-.62-10.55,4.21-14.03,8.36l-8.17,32.05-2.8,3.59-2.57-.78c-7.1,7.54-18.42,7.48-27.52,3.85l-21.02-43.37c-5.08-11.38-11.19-21.75-18.87-30.95-1.62,3.83-7.11,7.76-11.01,6.25,0-1.14.52-2.03,1-3,2.13-4.32,5.7-6.13,9-9Z"/>
      <path class="cls-164" d="M139.03,796.2c-1.91-1.87,6.09-8.31,7.41-10.08,2.38-3.2,5.64-8.08,7.4-11.6s5.78-17.36,7.87-18.13c6.97-2.58,22.68-.83,30.85-1.15,33.9-1.34,68.53-5.86,101.91-7.08,2.85-.1,6.51-.65,8.6,1.48,3.6,3.67,9.08,18.88,13.14,24.86,2.19,3.23,14.83,15.99,14.84,17.19,0,1.41-1.42,2.91-2.73,3.3-1.74.51-10.17,1.1-12.76,1.24-46.13,2.64-96.39-.51-143.09-.09-6.15.06-12.3,1.32-19,1.1-4.75-.16-9.49-1.78-14.45-1.05Z"/>
      <path class="cls-181" d="M343.76,620.45c39.33-6.61,55.01,51.98,55.35,81.27.31,26.21-12.93,84.2-50.36,72.27-31.46-10.03-41.48-68.04-38.29-96.09,1.97-17.27,13.2-54.07,33.3-57.45Z"/>
      <path class="cls-90" d="M839.03,686.21c3.17,5.99,5.72,12.33,9.57,17.96l-1.22,1.89c-43.36,3.37-86.49,7.96-129.81,11.19-49.21,3.67-98.85,5.87-147.87,8.33-9.53.48-19.16,1.81-28.67,2.62,7.22-7.47,14.15-15.18,21-22.99l2.1-1.23c88.14-1.89,185.35-9.64,273.59-17.67-.79.86-.36.83,1.31-.11Z"/>
      <path class="cls-181" d="M830.03,508.21c-4.22.48-9.81,3.63-14.82,4.68-27.45,5.75-59.71,8.69-86.02,15.98-8.68,2.4-16.82,8.16-25.63,8.39-11.85.32-26.7-4.74-39.04-6.05-20.84-2.2-42.11-2.48-62.98-4.02-51.99-3.83-104.51-8.3-156.51-12.99-2.1,3.12-8.32,2.04-10-1l-2.19,1.7c-4.18-1.6-8.35-3.09-12.81-3.7-1.17-.5-2.37-.25-3.7-1.29-1.09-.85-3.13-3.92-.67-4.58,6.82-1.83,21.17,1.18,29.37.87,2.71.89,4.59.62,5.65-.82,81.74,7.77,167.63,8.89,249,7.11l.75,1.32,18.6-.62c2,0,4,.01,6,0l10-1c23.22-.32,56.51-3.6,79.22-8.28,6.53-1.35,19.78-6.81,25.33-6.78,2.62.01,5.34,2.98,4.02,5.07-1.51,2.4-10.94,3.87-13.58,5.99Z"/>
      <path class="cls-164" d="M667.03,635.21l-2.08-1.22c-.54-3.59-1.84-19.53-.63-21.88.97-1.88,2.03-2.82,4.25-2.91l100.36-3.79c3.59,1.39,4.58,21.61,3.4,22.99-.31.37-.78.6-1.3.8l1,12c1.07,1.52,1.07,3.52,0,6-.32,1.31-1.2,1.89-2.5,1.99-22.13.55-44.01,3.47-66.01,5-11.5.8-23.02.79-34.49,2.01-2.31.39-3.48-2.4-1-3l-1-18Z"/>
      <path class="cls-58" d="M52.03,559.21c2.41.38,1.93,1.87,1.33.97-.55-.84,13.35-2.7,13.67,1.03l1.98,1.46c.13,6.27.47,12.63,1.09,18.94,1.32,13.45,1.92,19.54,8.14,31.57,13.26,25.62,26.2,50.07,41.06,74.89,6.35,10.61,14.74,22,25.24,28.69l.49,2.45c.76,1.56.09,3.33-2.02,5.32l-5.98,9.98c-5.56,1.09-11.23.99-17-.3-8.15-22.08-27.95-82.82-46.06-95.44-16.31-11.36-32.35,1.62-38.7,17.18-5.87,14.4-8.69,31.79-9.24,47.26-2.65.89-2.62-3.96-2.87-5.62-1.7-10.94-1.69-23.3-2.12-34.38l1.31-.25c3.12-20.88,16.82-42.14,38.73-46.22-6.33-.79-12.82.57-19.46,4.08-3.64-.95-4.1-4.48-1.37-10.61,5.11-13.53,8.66-27.37,10.64-41.52l-.86-1.48c.62-2.31,1.48-5.69,2-8Z"/>
      <path class="cls-133" d="M384.03,573.21c-3.9,3.87-7.95,7.34-11,12-6.57-2.03-11.7-6.39-18.95-7.55-24.49-3.92-41.28,19-48.8,39.3-9.79,26.42-11.7,57.26-12.25,85.25-1.94,6.62-4.77-2.97-4.95-6.96-4.4,1.49-9.08.14-14.05-4.04-3.47-.1-7.12-1.54-10.94-4.33-3.77-.87-6.12-2.43-7.06-4.67.72-1.3,1.54-1.97,2.88-2.07-.17-8.36,1.65-16.56,6.99-23.17-1.11-10.53,1.24-17.09,6.6-25.71,3.73.04,6.94-.86,9.64-2.7l6.08-.68c1.07-2.63,2.67-4.85,4.82-6.68-1.27-7.56,3.12-17.71,6.32-25.02,11.76-26.84,38.13-48.15,68.04-35.74,5.89,2.44,15.04,6.58,16.64,12.76Z"/>
      <path class="cls-44" d="M293.03,702.21c1.25.49,1.82,15.34,2.27,18.23.78,5.01,2.08,9.98,3.72,14.76l-175.42,9.02c-1.02-.1-2.96-8.34-3.58-10.01,4.03-3.73,12.3.81,15.8-1.21.72-.42,6.07-12.4,9.2-13.79l2.53-1.15c7.36,2.46,15.24,2.6,22.96,2.42,36.72-2.05,73.42-3.79,110.09-5.22,4.91.28,9.25-5.73,4.78-8.78l.64-2.27c-4.56-1.16-9.4-6.27-10-11-1.94-.47-2.61-1.14-2-2,3.96-.76,5.79,2.98,9.53,3.09,3.28.1,4.69-2.07,4.97-2.07,2.18-.02,1.9,10.68,4,10.96.61.08.44-1,.49-.98Z"/>
      <path class="cls-75" d="M59.75,667.44c14.8-3.1,23.55,12.03,27.73,23.81,7.6,21.39,10.02,52.64-.58,73.33-10.88,21.24-28.72,15.32-39.04-2.71-11.15-19.46-13.17-45.59-7.7-67.04,2.39-9.37,9.01-25.18,19.59-27.4Z"/>
      <path class="cls-181" d="M839.03,686.21c.57,3.16-1.57,1.69-3.43,2.02-4.76.84-10.28,1.56-15.08,1.97-81.62,7.05-163.23,12.16-244.95,16.05-4.03.19-9.87.62-13.54-1.04,2.09-2.39,4.21-4.84,6-7.5,88.48-5.68,177.11-12.09,265.57-18.42,3.95.64,4.17,4.53,5.43,6.92Z"/>
      <path class="cls-159" d="M382.03,594.21c3.75-3.31,9.53-2.77,9.01-9,2.91-2.57,10.36,12.04,12.84,13.66,10.81,20.17,20.45,41.32,30.39,62.11,11.84,3.12,21.79,2.65,28.28-8.76l.49,6.99c.66,1.59,1.25,3.27,1.14,5.01-.78,13.29-3.78,27.65-6.9,40.46,1.34,1.59,1.02,4.73-.25,6.54-.13.48-.29.93-.58,1.27-.96,1.13-19.01-2.71-21.13-3.84-3.49-1.87-6.72-8.88-7.18-12.77l-2.12-.65c-5.32-25.62-10.96-49.6-23-73-.46-2.38-1.8-4.72-4-7-5.75-6.89-11.27-14.08-17-21Z"/>
      <path class="cls-80" d="M488.03,615.21l-.76,2.34c-6.14,1.99-9.48,6.83-10.86,13.08-4.66,24.06-9.84,47.98-15.57,71.77l14.97-7.12c12.25-1.96,23.61-5.57,34.07-10.83,13.45-13.45,25.76-27.96,36.93-43.55l2.21-.69c.35-.39.72-.73,1.14-.84,5.74-1.49-4.08,14.83-4.95,16.26-2.46,4.05-16.81,25.57-19.57,25.73-.54.03-1.08-.04-1.62-.15.09,1.26.06,2.6-.62,3.71-2.76,4.46-13.26,13.26-18.38,14.29-4.02,2.77-8.37,4.72-13.05,5.85l6.64-.53c.74,1.68,2.21,2.24,4.41,1.68l1.79-2.1c9.43.77,18.29-.47,26.58-3.72l2.63.82.26-2.54c15.89-14.43,30.24-30.55,43.04-48.35l2.7-.11c-1.71-3.2,5.06-10.34,8.06-12.14,2.67-1.61,11.21-3.86,12.94-.86l2,1c-4.59,2.21-14.6,13.57-18.51,17.99-14.16,15.99-27.04,33.1-41.49,49.01-5.44,5.08-12.01,6.33-19.11,7.62-10.53,1.92-58.3,4.31-65.04-.05-.67-.44-1.27-.99-1.85-1.58-2.51-3.89.15-7.92.73-11.77,2-13.34,2.72-27,5.27-40.23,2.33-12.08,6.67-24.25,9.13-36.37,2-3.64,9.41-8.48,13.52-8.62,1.45-.05,2.19.98,2.35.99Z"/>
      <path class="cls-9" d="M782.03,607.21c3.2.52,3.04,7.29,0,8-.02,1.63.36,9.65,0,10-.76.72-6.38-1.74-8.34,4.15s1.94,12.17-1.66,17.85c.35-1.42-.06-4.23,0-6l-1-12c-.18-3.46-.9-21.62-2.66-22.04l-99.84,4.04c-.79.06-1.58.24-2.06.94-1.59,2.29.39,18.73.56,23.06l1,18c.24.96-.32,2.3,1,3-.17.02-.61,1.32-1.93.58-3.84-2.18-1.02-5.39-1.02-8.12,0-3.33-1.23-6.46-.22-10.27-1.87-2.34-11-5.94-11.83-7.18-1.35-2.02-1.48-20.67-1-24,.76-5.3,5.38-6.6,9.97-7.51,30.83.26,61.77-3.51,92.48-4.53,12.25-.41,24.82-3.34,26.55,12.05Z"/>
      <path class="cls-3" d="M782.03,607.21c6.34-2.66,13.52-2.56,20.21-4.29,21.16-5.48,41.84-17.16,61.35-26.73,1.53-.18,3.53,4.47,4.16,5.81,2.17,4.58,2.72,8.92,4.28,13.21-8.67,2.39-41.88,13.91-44.93,21.59-.57,1.69.96,1.49,1.93,2.41-3.67,9.38-11.42,7.44-19,4-9-.03-18.18,0-26.99,2l-1.01-10c.03-2.52.27-5.6,0-8Z"/>
      <path class="cls-155" d="M426.03,695.21c4.12-6.15,4.57,3.92,5.54,5.96.16.34,4.42,5.57,4.73,5.77,1.12.72,10.48,2.42,12.69,2.82s6.07,1.2,8.04,1.46c17.21,2.26,38.14,2.18,55.49.99,10.56-.73,20.79-2.93,30.51-6.99-5.7,6.28-10.77,13.67-17.88,18.41-14.85,1.23-29.67,3.31-44.66,2.55l-47.84,3.1c-2.59-11.28-4.26-22.71-6.61-34.06Z"/>
      <path class="cls-167" d="M862.03,718.22c-6.57,23.1-21.21,54.78-46.95,60.54-5.77,1.29-13.08,1.43-19.05,2.44-1.27-.95,10.5-11.76,11.51-12.98,6.99-8.42,14.2-19.79,19.66-29.34,1.68-2.94,7.01-15.72,8.26-16.74,3.91-3.19,20.98-2.57,26.57-3.92Z"/>
      <path class="cls-178" d="M829.03,619.21c14.42,13.62,22.95,35.15,36.05,50.44,2.68,3.31,20.94-1.42,21.95-.44.42,4.65-.14,8.5-1,13-3.89,3.06-13.77,4.73-18,2-4.2.55-8.51-.65-11.28-2.96-1.83,1.12-3.74.43-5.72-2.04-9.7-15.52-22.06-34.91-33.58-48.92-2.2-2.67-4.79-4.88-7.42-7.08.08,0,.51-.68,1.28-.67,3.03.04,7.46,2.05,10.17,1.7,3.09-.4,4.13-4.94,7.55-5.03Z"/>
      <path class="cls-72" d="M468.02,744.21c1.25,1.19-9.88,21.29-11.58,23.91-4.22,6.55-12.37,17.1-20.16,18.84-11.03,2.46-23.11,1.62-34.26,3.23,1.57-2.73,5.06-3.08,7.5-4.99,11.21-8.81,21.08-25.92,27.46-38.54l31.04-2.45Z"/>
      <path class="cls-179" d="M524.03,533.21c5.1,3.88,10.29,9.29,12.16,15.56,1.51,5.06,2.01,6.79-4.16,5.44-17.68-3.72-43.3-3.99-57.02-16.48-1.42-1.3-7.56-8.67-7.96-10.04-.55-1.86.32-1.34,1.47-1.49,7.65-.99,48.46,4.07,55.52,7.01Z"/>
      <path class="cls-39" d="M550.03,539.21c3.38-2.55,7.59-3.38,12.66-2.49,19.67,1.63,39.28,3.44,58.84,5.44,2.33,2.69,4.47,3.06,6.43,1.08l10.08,2.54c4.49-2.5,7.65-3.02,9.49-1.58.02-.49.08-.96.3-1.33.48-.83,17.32.41,18.7,1.33,2.56-1.44,8.35.54,11.5,2l14.06,5.59c9.92.62,17.96,3.8,24.11,9.51,2.59-.24,4.2.39,4.83,1.9l-18.51,1.99c-16.44,2.89-25.24-11.49-40.1-13.88-27.44-4.42-61.68-5.88-89.91-8.09-10.97-.86-12.39,2.1-22.49-4.01Z"/>
      <path class="cls-75" d="M50.03,567.21c2.97-.57,1.99,1.55,2.01,3.47.22,15.57-9.01,33.27-12.01,48.53,8.16-2.27,19.25-9.74,25.99-1.01-26.45,1.3-41.51,29.21-43.01,53.01l-1.99-8c-.73-11.89,4.48-33.79,9-45,7.06-17.5,14.88-32.04,20-51Z"/>
      <path class="cls-145" d="M146.02,757.21c2.03,1.8-13.82,26.91-17.62,28.87-6.12,3.15-21.11,2.06-28.37,3.11.16-1.65,2.44-1.04,4.07-2.41s5.29-6.06,6.89-8.11c2.8-3.57,10.73-18.94,11.69-19.55,3.77-2.41,17.95.04,23.33-1.91Z"/>
      <path class="cls-135" d="M541.03,565.21c2.95.07,4.95.73,6,2-2.84,1.53-2.9,1.66-5,4-6.42-.19-12.89-1.25-19.21-2.29-18.18-3-43.69-6.99-59.79-15.71-.83-1.82-.15-2.4,1.46-2.97-6.36-7.72-12.56-15.58-18.6-23.57-1.32-2.46-.77-4.55,2.14-3.46,4.84,8.14,21.63,25.51,30.3,29.2,11.44,4.87,49.96,12.19,62.7,12.8Z"/>
      <path class="cls-61" d="M776.03,539.21c-11.08,2.77-35.01,6.88-43.01,13.49-3.66,3.03-7.13,9.7-11.99,10.51-7.66,1.28-6.03-1.38-9.61-3.89-.75-.52-6.25-3.01-7.5-3.5-8.28-3.23-18.58-3.65-25.89-9.61h1c5.35,1.16,9.29,3.92,14.2,5.3,15.35,4.31,21.13-2.16,33.8-8.3,11.69-2.94,23.63-4.85,35.83-5.74,4.86-2.19,10-3.11,13.17,1.74Z"/>
      <path class="cls-86" d="M846.03,513.21c1.57,3.94,2.87,9.76,1.24,13.75-1.04,2.55-12.45,10.86-15.24,12.25-5.63,2.81-12.39,2.71-16.99,9-.98-4.75,2.62-7.21,4.51-10.98,6.11-12.16,4.72-15.9,18.11-21.89,2.06-.92,8.04-1.86,8.37-2.13Z"/>
      <path class="cls-66" d="M727.03,543.21c3.09-1.5,3.92-2.5,7.96-3.54,25.16-6.48,52.54-9.44,78.03-14.46.41,3.05-.48,4.94-3.27,6.22-11.24,2.56-22.56,4.98-33.73,7.77-2.47.95-4.68-1.81-6.32-1.78-1.55.02-4.51,1.81-6.86,2.06-6.73.72-13.08.81-20.07,1.97-4.47.74-11.96,4.67-15.75,1.75Z"/>
      <path class="cls-1" d="M679.03,546.21c-.32-.07-.68.07-1,0-2.56-.53-9.49-2-11.5-2h-19c-2.23,0-6.62,3.35-7.97,3.54-3.89.55-10.05-2.71-11.99-2.61-.53.03-.59,2.05-1.06,2.12-2.77.42-4.25-3.14-7.2-3.84-9.14-2.18-18.71-1.26-27.78-2.22-13.37-1.42-28.94-6.24-41.51-1.99-1.4-.84-1.69-1.04-3-2l.66-1.32c2.2.22,4.31,0,6.34-.68,35.74,3.2,71.84,3.95,107.49,7.01,5.46.47,13.08.82,17.51,3.99Z"/>
      <path class="cls-142" d="M445.03,514.21c-.3,3.26,1.4,6.31,3,9-1.94.66-.27,2.69.39,3.64,5.79,8.27,13.14,16.04,19.59,23.86l-4.98,2.5c-12.25-6.63-19.66-20.26-28-31-1.18-2.92-2.14-6.41,0-9,3.36.43,7.09.74,10,1Z"/>
      <path class="cls-165" d="M865.02,611.2l8,45c-9.71-10.74-16.3-26.31-19.58-40.03,4.21-1.27,7.06-5.49,11.58-4.97Z"/>
      <path class="cls-63" d="M886.03,682.21c-1.03,5.41-2.99,11.62-7.94,14.56-1.49.89-13.73,4.49-14.46,4.32-1.41-.33-3.55-5.37-3.6-6.88-3.09-4.77-3.24-8.84-.43-12.2,2.44,2.56,5.18,2.63,8.43,2.2,6.06-.57,11.91-1.94,18-2Z"/>
      <path class="cls-177" d="M550.03,552.21c-.58,1.66-1.96,1.94-4.15.85,1.56,2.34,2.27,4.39,2.15,6.15-5.15-1.98-10.6-3.86-16-5,3.95.62,3.49-.99,2.53-4.03-1.81-5.75-7.12-12-10.53-16.97,6.94,2.89,20.45,13.51,26,19Z"/>
      <path class="cls-124" d="M855.03,538.21c-.68,1.44-.98,3.26-1.97,4.52-2.15,2.73-21.59,14.3-25.05,15.06-2.93.64-5.34-1.19-6.98-3.57,8.76-2.07,16.02-8,24-12.01,4.19-2.1,5.87-3.04,10-4Z"/>
      <path class="cls-127" d="M550.03,552.21c1.6,1.58,6.74,7.39,6.77,9.33.05,3.01-7.13,4.25-9.77,5.67l-6-2c3.73.18,7.41.19,11-1.01,1.22-1.74-3.22-4.14-4-4.99-2.09-2.3-4.86-3.43-3.97-7.43.66-2.97,4.81.84,5.97.43Z"/>
      <path class="cls-138" d="M28.03,565.21c1.79-.37,2.13.63,1,3h1s2.17.93,2.17.93c-1.14,7.36-2.2,14.72-3.17,22.08-.04,1.76-1.93,5.76-2,8-.41-.64-1.93-1.68-2-2-.31-1.46,1.03-4.38,1.04-6.46.06-9.66-.55-16.01,1.96-25.54Z"/>
      <path class="cls-56" d="M868.03,684.21c-2.66.25-4.58,2.6-7.99-1,.02,2.19-1.21,4.36-1.13,6.54.06,1.48.95.04,1.12,4.46-3.45-4.68-5.94-10.1-9-15l5,.99c.45-.32-6.16-7.92-4.5-9.99,4.34,6.81,7.37,13.7,16.5,14Z"/>
      <path class="cls-71" d="M554.03,535.21c-1.17,2.82-4.41,1.99-7,2-.95-.7-3.65-.19-2.99-2.99,3.51-.78,6.88.72,9.99.99Z"/>
      <path class="cls-87" d="M403.03,622.21c-1.11-2.15-3.69-4.24-4-7,1.48,1.77,4.92,3.07,4.97,6.45l-.97.55Z"/>
      <path class="cls-164" d="M531.03,244.21c-3.16,2.6-5.29,2.84-8.74.55-8.67-7.92-18.63-7.9-29.77-7.68l-1.49-1.88-.69,2.04c-3.73-.48-4.83,2.18-3.31,7.96,5.91,12.31,19.11,6.78,25.53,13.97,4.25,4.76,6.24,13.29,3.47,19.03-8.68,4.05-20.3,3.82-29.41.5,2.42,1.71,2.41,4.3-.59,3.5-3.66-1.57-6.93-2.54-10.04-5.46-4.74-4.45-8.48-16.66-14.49-16.61-10.3.09.48,17.52,3.52,21.07-6.86,4.64-14.76,8.57-23.45,10-4.64,1.18-4.06,4.64,1.75,10.36l-.3,2.64c7.51,8.02,12.72,9.99,23,13,.34,3.91-.64,1.24-.1,1.34,1.6.29,11.44,5.89,12.34,7.01,5.3,6.66-10.22,11.27-15.11,11.67-7.68.62-11.76-1.82-16.92-7.5-17.82,12.11-46.05-.56-44.26-23.6-17.15,4.49-35.6-4.79-37.68-23.24-23.8,5.23-38.72-14.36-30.28-36.47-9.35-.98-16.75-8.45-17.83-17.76-1.49-12.85,6.24-13.39,16.84-11.45,3.6,0,7.26-.2,10.84.16,2.68,7.14,6.85,13.79,12.69,18.81,7.09,6.09,21.6,11.82,30.47,14.03,12.45,8.3,33.05,6.92,47,3,7.89-1.31,17.38-4.98,23.92-9.58,10.68-7.52,30.55-37.82,41.76-38.16,5.66-.17,16.01,10.78,20.41,14.16,5.6,4.3,13.84,8.06,17.92,14.08,4.8,7.08-1.98,6.18-7,10.51Z"/>
      <path class="cls-164" d="M345.03,151.21c1.08-4.75.71-3.84,1.09-8.39.92-10.97,16.41-29.61,27.41-29.61h14.5c.49-4.76-3.32-7.37-4.56-11.94-1.03-3.81-1.35-23.96.81-25.82,3.55-3.06,20.07-.8,24.75,1.26,3.37,1.48,5.56,4.61,8.99,5.5-.35-8.92,5.61-17.87,12.67-22.83,1.54-1.08,14-7.87,15.08-8.03,5.93-.87,11.09,16.02,12,20.62.41,2.07.29,4.16.26,6.24,6.38-2.69,10.22-7.94,17.01-10.48,3.72-1.39,15.82-4.43,18.96-3,2.29,1.04,8.02,10.89,8.02,12.98v14.5c8.84-3.03,20.12-4.55,29-1,10.77,4.31,5.41,11.14,5,20,11.66-2.14,25.34,6.26,21.99,19.01l-22.99-4.01c-10.73-2.42-22.5-4.4-33.51-4.99-34.5-1.85-125.23,2.84-149.15,30.33-2.66,3.06-4.35,9.59-6.34,11.66-4.76,1.51-4.34-1.68-2.23-4.92-1.38-3.7-.97-6.06,1.23-7.08Z"/>
      <path class="cls-37" d="M297.03,216.21c6.29-1.02,12.71-.87,19,0,5.42,0,12.18-.85,17,1-7.56-.01-13.33-2.45-14.77,6.75-1.68,10.71,7.63,21.67,18.76,20.26-10.14,23.75,4.01,42.89,30,35.99-2.03,18.91,19.68,29.24,36.03,23.44,1.55,1.1.86,6.95,1.42,9.62,3.3,15.81,22.5,22.46,36.55,17.43,1.67-.6,4.53-3.33,5.52-3.25.88.07,5.73,6.32,9.46,7.29,6.82,1.79,18.33-.6,22.04-7.02-4.16-2.77-8.91-5.12-12.97-8.05-2.27-1.64.07-1.43.96-2.46,9.76,2.85,19.75,5,30,5l2.24,1.28c2.79,7.17,9.32,14.18,17.67,12.68l1.09,2.04c5.21,1.09,8.61-2.12,11.92-5.78,2.07-.13,5.16,4.9,3.08,6.78-6.98,6.98-13.74,8.75-23,11l-1.13,2.33c-11,2.71-47.77,8.97-56.25,2.2l-.62-2.52c-4.43-1.33-8.39-4.2-11.86-8.6-14.71,13.99-33.6,2.6-44.21-10.55.03,5.29,3,9.49,7.08,12.63l-.02,2.52c1.3,1.46.72,2.01-1,1-3.46,1.63-7.08,1.14-10.88-1.47-7.79-.44-17.52-1.87-23.12-7.53-3.04-1.86-.08-3.62,2.78-3.94-6.23-1.58-14.57-4.16-12.16-12.05h2.38s2.59.15,2.59.15c5.87,8.09,16.86,6.78,24.91,3.12-15.45.82-27.03-9.94-30.52-24.54l-1.97.26-.59,4.95c1.17,7.12-5.49,5.54-3.41-.95-3.53,2.34-11.57.3-15.53-1.72-8.63-4.42-16.58-16.61-15.5-26.41l-.97.14c-1.78,4.94-6.38-3.81-6-6-4.04-4.4-8.05-6.15-12-11-4.96-9.12-6.04-21.05-.49-30.17l-1.51-.83-2.57.12c-1.15-4.34-2.96-8.05-5.43-11.12-1.53-.94-1.39-2.07,0-3,2.57-1.03,3.44-.84,6-1Z"/>
      <path class="cls-158" d="M534.03,157.21c-.91,4.45,1.75,9.09,7.99,13.91l-.99,2.09c-.25,2.78-1.92,3.45-5,2-4.7,1.55-10.55,2.13-10.01,9-12.86-11.48-27.32-14.09-43.68-8.19-20.78,7.49-28.63,34.74-46.31,42.19-3.45,1.08-6.83,1.48-5.97-3.1-5.4.41-7.75-.89-7.03-3.9l.66-2.13c9.49-.25,17.96-18.22,17.18-25.75-.47-4.59-12.6-8.69-16.86-9.93l-.98-2.2-8.37-1.68c-1.08-1.3,1.45-10.37,4.37-10.32,37.78-7.15,76.96-8.53,115-2Z"/>
      <path class="cls-181" d="M564.03,249.21c5.44,5.74,8.6,13.48,7.99,21.49-.79,10.34-6.01,13.08-15.56,14.44.22,18.6-1.21,43.03-26.43,38.07-.5,2.57-.89,5.86-.18,8.54-2.87,3.33-7.58,7.8-12.82,6.46-2.42-.18-4.84.29-7.27-.23-5.33-1.14-13.4-9.93-13.73-15.77,25.95,0,31.27-8.37,46.49-26.01,4.47-5.18,10.02-7.93,12.05-14.95,1.63-5.63,1.31-11.24-.22-16.86-1.87-6.82-7.97-10.55-.03-15.39,4.12-2.51,6.27-3.42,9.71.21Z"/>
      <path class="cls-57" d="M554.03,141.21c18.36,5.48,26.11,15.42,29,34,1.64,6.66-3.07,4.48-6,1-1.39-9.01-3.05-12.34-9-19-30.35-17.4-69.88-18.39-104.38-16.82-29.94,1.37-63.24,3.67-89.74,18.22-.92-.61-1.88-.78-2.87-.41l-.18,2.43c-4.59,6.12-8.66,12.62-12.22,19.51l-2.6.06c.36,3.39-2.44,3.84-2,0,4.52-27.73,25.16-34.53,49.8-39.7,42.29-8.89,108.72-11.68,150.2.7Z"/>
      <path class="cls-82" d="M568.03,157.21c-32.3-13.04-68.83-15.64-103.54-14.04-17.89.82-69.7,6.95-83.4,16.6-14.62,10.31-16.6,42.77-6.48,56.35.73.98,5.85,6.71,6.41,7.09,1.06,1.46.39,1.79-2,1-5.11,1.3-10.79-6.43-13.26-10.73-2.76-4.79-6.54-15.76-3.74-20.27-1.73-3.8-1.73-5.8,0-6,.25-9.3,3.68-20,9.19-27.37.13-.18.32-.5-.19-1.63,26.4-19.98,107.8-22.17,140.48-18.98,16.46,1.6,45.53,5.7,56.52,17.98Z"/>
      <path class="cls-20" d="M465.03,281.21c11.1,12.97,29.62,17.57,45.8,13.3,2.76-.73,6.12-3.55,8.64-3.31,2.68.25,5.22,4.58,8.56,4.02,1.13,1.25-6.17,7.76-7.68,8.81-20.88,14.55-49.69-3.28-72.88-1.88-1.86.11-3.74-.23-4.44,2.06-15.97-17.07.2-13.63,12.23-19.27,3.65-1.71,5.55-5.94,9.77-3.73Z"/>
      <path class="cls-29" d="M419.03,159.21l-2.97,9.51,6.97,2.49-1.48,1.88c-4.05-1.61-35.98,3.67-36.49,5.45-.88,3.08,8.8,7.17,11.74,5.71l2.46,1.03c-.21,14.19,6.05,25.23,21.72,24.09l2.04,1.83c1.31,2.56,8.67,1.67,9.01,1.99,1.01,1-2.6,6.63,3.99,5.01-11.01,4.64-37.98,2.88-47.95-3.55s-9.19-21.14-7.94-31.85c2.44-20.87,22.04-20.42,38.89-23.61Z"/>
      <path class="cls-183" d="M317.03,83.21c3.89-1.01,9.72,2.96,9.07,6.42-.03.14-1.73-1.34.93.58-1.51,15.32,4.22,46.2,13.17,59.34,1.57,2.3,2.01,2.84,4.83,1.66-.59,2.59.95,5.45.73,7.39-.24,2.08-4.08,5.06.27,4.61-2.18,2.25-5.68.02-8.46-.04-7.83-.17-15.72.09-23.54.04-3.76-.33-2.08-9.33,1-10,.75,3.8,9.56,3.18,10.06,1.39,1.12-3.99-5.41-22.52-6.57-28.38-2.85-14.37-3.34-28.71-1.49-43.01Z"/>
      <path class="cls-126" d="M341.03,180.21c-.82,7.87.6,16.98,0,25-7.29-1.25-14.69-.59-22-1-.14,0-1.13-.96-2.42-1.04-6.85-.45-13.77.51-20.57-.97.16-4.13-.27-8.35,0-12.48.21-3.06,1.93-7.96,1.99-10.51.02-.78.23-1.97.72-1.98,10.76-.35,24.4.04,35.16.82,3.83-.6,6.21.12,7.13,2.17Z"/>
      <path class="cls-69" d="M362.03,193.21c2.74,14.54,4.05,22.35,17,31,9.75,3.89,20.35,6.69,30.88,8.57l1.12,1.43,11.69.74.22,2.61,15.48-.2,1.61,1.86c-15.01,6.7-31.83,3.28-47.21-.29-26.06-6.05-38.9-15.38-39.79-43.71.3-2.02,1.74-3.39,4.32-4.11,3.3-4.97,4.28-3.09,4.68,2.11Z"/>
      <path class="cls-109" d="M534.03,157.21c1.7.29,3.78,1.53,7,2,4.24,1.52,8.24,3.86,12,7,3.56-2.34,8.02,1.43,11,4,5.83,12.77,5.89,43.36-12.62,45.91-7.1.98-3.47-2.89-7.38-6.91l-.68-2.31c13.49-7.59,21.19-31.4-.49-31.85l-1.83-1.84c-2.29-4-15.34-13.65-7-16Z"/>
      <path class="cls-22" d="M541.03,173.21c16.49-2.01,21.55,12.37,13.86,25.36-2.49,4.2-7.98,6.82-10.86,10.64-3.46-3.55-5.86-1.95-6.08-9.5-.19-6.51,1.19-6.6,7.07-7.51.33-1.35-1.4-1.15-1.99-1.99,1.86-.79,7.93-5.43,2.66-6.13-2.32,1.07-3.88.77-4.66-.87-3.45.2-6.88.66-8.98-2.5.02-.57,9.34-5.64,3.98-5.5,1.57-.52,2.52-1.7,5-2Z"/>
      <path class="cls-34" d="M516.03,195.21c5.87,5.01,11.2,10.34,16,16,.66,1.15,3.3,3.1,1.5,5-8.38-6.62-18.33-19.08-29.24-20.75-17.22-2.63-27.79,14.09-39.26,23.76-4.34,6.45-7.23,6.21-6-1l-.2-2.75c10.41-13.85,23.95-31.66,43.6-28.2,4.17.73,12.88,3.69,13.6,7.95Z"/>
      <path class="cls-31" d="M521.03,196.21c.88,4.84-2.94,1.5-5-1-11.2-6-16.98-8.96-29.99-3.49-13.37,5.62-18.18,17.05-27.01,26.49.24.54.42,1.07.35,1.57-.7,4.88-22.86,17.74-26.31,14.68-.4-.36-.73-.79-1.04-1.25-5.32,1.12-14.01.24-5-2,34.61-3.71,38.7-44.14,66.51-46.99,14.48-1.48,18.54,2.03,27.49,11.99Z"/>
      <path class="cls-50" d="M310.03,163.21c-3.32-.04-6.67.04-9.99-.01.02-2.56,5.67.81,4.97-2.47-.97-4.61-19.59-12.73-7.91-21.95.92-.73,10.5-7.08,10.93-6.56-2.11,7.46,5.92,15.67,7.01,21,.32,1.55-1.8,7.69-1,10-1.33,0-2.67.01-4,0Z"/>
      <path class="cls-55" d="M538.02,255.21c2.31,8.52,6.71,13.76,4.78,23.27-2.04,10.06-16.07,7.95-16.77,1.22-.08-.73,2.07-12.73,2.44-14.54.92-4.46,4.86-9.77,9.55-9.94Z"/>
      <path class="cls-24" d="M459.03,218.21c2.9.93,1.38,2.76,1.01,5,1.72-1.21,3.38-2.64,4.99-4,.02,1.98-1.35,2.77-2.48,4.02-5.54,6.1-14.04,14.94-22.52,15.98-3.94.49-17.87.65-21.49,0-1.61-.29-3.54-2.06-2.5-2.99,1.16-1.04,5.75,3.23,4.99-1l-9.99-1.01c2.63-2.76,9.7-1.54,13.18-.45l7.82-.55c9.97-.63,20.23-7.77,27-15Z"/>
      <path class="cls-137" d="M549.03,229.21l.71-1.49c8.67-1.96,16.71-4.85,22.7-11.79l1.59.28c2.72-5.73,5.39-7.4,8-5-4.35,15.49-13.81,22.52-29.43,25.95-1.22-.26-2.48-6.05-3.57-7.95Z"/>
      <path class="cls-151" d="M324.03,175.21c4.28.04,14.05-.82,17.36.14s-.25,3.79-.36,4.86l-43-1c0-.21-1.97-3-1-4s23.36-.04,27,0Z"/>
      <path class="cls-77" d="M531.03,244.21c-2.98,2.57-5.33,7.25-9.51,8.96-3.59-5.76-5.43-10.62-12.49-12.96-3.41-.82-6.75-.82-10,0-4.35.08-2.58,1.3-8-1-2.55-1.58-2.97-2.79,0-4,3.68-.55,17.43.45,21.27,1.23,5.88,1.19,11.92,10.46,18.73,7.77Z"/>
      <path class="cls-103" d="M516.03,278.21c-3.47,7.19-16.54,7.81-23.41,6.91-3.4-.45-4.36-1.95-6.59-2.91,2.16-.58-1.4-2.34-1.86-2.64-3.3-2.15-7.17-3.74-9.14-7.35,7.33,2.18,13.76,6.08,21.62,6.87,7.26.73,12.63-1.57,19.38-.88Z"/>
      <path class="cls-184" d="M434.03,253.21c-1.22,1.51-2.98,2.22-4.79,2.71-8.93,2.44-29.31,2.93-37.79-.63-2.51-1.06-3.47-2.59-4.42-5.08,14.33,3.57,32.39,5.43,47,3Z"/>
      <path class="cls-13" d="M381.03,223.21c7.64,5.12,36.72,8.99,46,8-1.09,1.38-3.38.33-3,1.99,2.64-.1,5.36.18,8,.01-6.1,1.5-14.66,1.47-21,1-10.81-.8-23.11-4.06-32-10l2-1Z"/>
      <path class="cls-149" d="M582.03,209.21c-.15.58.16,1.44,0,2-4.41,1.18-4.96,2.21-8,5-1.54-2.16,1.38-7.17,3-9,.96-6.09,1.73-12.29,2.31-18.6,2.57.14,3.47-1.24,2.71-4.12l1.97-1.28c3.01,8.76.09,17.62-2,26Z"/>
      <path class="cls-38" d="M577.03,207.21c-.89,3.06-1.38,5.8-3,9-1.26,1.16-2.34,3.13-3.99,4.51-6.4,5.37-12.88,6.96-21.01,8.49-.37-.65-2.72-.86-2-2.99,13.02-1.47,25.15-7.75,29-21.01,1.34-1.1,1.68-.43,1,2Z"/>
      <path class="cls-186" d="M584.03,183.21c0,1.22.26,6.76,0,7.01-.35.34-3.67-.36-4.02-.01-.47.47-.8,11.13-1.23,13.28-.38,1.91-1.56,3.01-1.76,3.72l-1-2c2.66-9.17,2.45-19.61,1-29,2.59-.53,4.02.69,5.99,2v-3c.47,2.93,1.01,4.39,1.01,8Z"/>
      <path class="cls-180" d="M356.03,180.21c5.92-3.97,7.6,1.59,6,7,.19,1.95-.13,4.03,0,6-.09-.49-1.06-4.31-1.99-3.99.93,3.67-4.15,4.62-7.01,5.99-.18-5.7.12-9.62,1-15l.48.68c.59.09,1.27-.7,1.52-.68Z"/>
      <path class="cls-104" d="M291.03,220.21l.44,2.52c-5.39,5.48-8.97,13.78-6.72,21.45.23,2.07-.57,2.98-2.72,3.04-3.84-9.78-2.38-22.72,7-29,.55-.37,1.37-.75,2-1,.83,1.08.78,1.91,0,3Z"/>
      <path class="cls-175" d="M551.03,161.21c8,2.35,9.32.94,13,9l-.49.98c-2.84-2.96-7.35-2.7-10.51-4.98-3.72-.7-7.85-5.71-2-5Z"/>
      <path class="cls-105" d="M541.03,183.21c1.71-.1,6.68-2.95,7.85.64,1.74,5.33-.96,6.57-5.85,6.36-1.73-2.46-2.53-3.59-2-7Z"/>
      <path class="cls-96" d="M521.03,196.21c3.84,4.28,8.15,10,11,15-.42,2-2.54-1.04-3-1.5-4.4-4.4-10.22-9.03-13-14.5,1.31.7,4.47,3.03,5,1Z"/>
      <path class="cls-158" d="M551.03,161.21l-2,.5c1.54.81,3.02,3.8,4,4.5-5.47,1.19-7.12-4.37-9-5.5-1.04-.63-5.72-.14-3-1.5,4.34.64,5.66.73,10,2Z"/>
      <path class="cls-30" d="M491.03,235.21v4c-.97-.41-1.8-1.23-2.99-1l-1.01,7c-2.58-5.37-3.02-8.95,4-10Z"/>
      <path class="cls-10" d="M316.03,216.21c-6.18-.01-12.9-.37-19,0,5.45-1.68,13.63-1.67,19,0Z"/>
      <path class="cls-30" d="M509.03,240.21c-3.33.04-6.68-.06-10,0,2.77-2.23,6.93-1.02,10,0Z"/>
      <path class="cls-113" d="M143.03,247.21c.53-.47,1.09-.91,1.7-1.22,7.11-3.69,38,11.04,45.47,16.05,16.28,10.9,33.17,20.63,50.68,29.18l2.15,2.99c1.96.8,3.99.44,5.98,0,11.18,4.13,22.97,4.64,34.77,4.9l2.25,2.09c1.81.07,3.47,2.74,5.91-.6,5.71-7.84-3.94-21.27,6.22-24.94,1.52-.55,1.71.53,1.87.54-.14,2.61-.81,4.28-2,5-.55,3.34-.39,6.66,0,10l1.2.5c1.03,5.6,3.29,10.76,6.8,15.5,2.34-1.54,4.56.38,4,3,4.09-.61,5.95.45,5.59,3.18,4.78,3.51,9.82,6.64,15.1,9.38l.3,2.44c1.53.61,3.08.64,4.66.15,9.05,4.49,18.43,8.27,27.97,11.59l3.37,3.26c10.9,3.63,22.73,6.94,34,9,1.93,2.88-1.63,4.48-4.38,5.08,6.84-.25,11.64,5.35,3.38,6.92l-3.39,1.39c-23.07-4.67-46.79-10.32-68-20.91-4.88-2.44-21.13-11.15-22.34-15.42-.19-.66-.25-1.35-.27-2.06-1.92.32-3.84-.81-5.74-3.38-6.41,1.87-8.58,25.73-8.26,32.38,2.57,1.95,4.56,9.13,3,12-5.43-1.35-4.49-7.66-10.61-8.9-2.3-.47-.49,2.24-3.64,4.15-9.93,6-17.03.82-26.25-.24-4.02-.46-9.85-.69-14.09-.92s-8.06,2.41-12.42-2.57l2.02-1.52c3.27-2.37,13.46-1.16,16,2,4.37-.54,8.78-.65,13.21-.32l2.15-1.54,15.77-1.05c-1.35-8.14-1.67-16.49-.25-24.7l2.13-1.39c-3.25-1.03.02-8.61,3-9-1.51-.72-1.72-1.69-.67-2.83-22.53.18-44.5-6.93-63.72-18.36l-31.93-19.95c-14.22-8.68-29.65-15.88-46.41-17.58l-3.27-2.28c-7.11-2.3-15.57-.37-22.99-1.01l12.99-4-1.28-2.24-8.72-3.74c8.95.33,18.06-.49,26.99-.01Z"/>
      <path class="cls-157" d="M213.03,250.21l2.14.17,8.35,9.9c2.51,1.76,3.68,3.74,3.51,5.93-3.33,1.12-6.86.52-10.58-1.81-35.97-19.8-73.51-36.72-115.84-34.23l-36.92,3.88-1.66-1.84c5.41-11.45,8.77-21.37,16-32l1.81-1.93c24.16-.82,46-.57,70.02,8.25,20.65,7.58,49.4,23.94,62.93,41.47.39.5.37,1.31.25,2.21Z"/>
      <path class="cls-32" d="M227.03,266.21l2.33-.77c2.67,1.44,21.11,12.97,21.51,14.2.16.49.18,1.02.16,1.56,9.32,5.01.52,16.23-8,13-33.49-12.53-63.53-45.06-100-47-1.04-1.66-3.8-1-5.49-1.02-14.74-.18-28.83.47-43.51-.98-1.4,2.49-2.64,2.61-4,0-7.69-.84-15.66-3.22-23.51-3.99-2.8-.27-5.69.15-8.49-.02-.52-3.57,2.75-6.35,4-8.99l38.46-4.04c27.1-1.19,54.78,4.83,79.51,15.57,15.92,6.92,30.3,17.32,47.03,22.47Z"/>
      <path class="cls-75" d="M367.03,12.21c7.61-2.48,15.4-1.46,16.67,7.63-6.75,27.36-16.17,54.72-13.08,83.42l-12.59,2.95c-.82-19.87,2.23-39.74,7.73-58.76,1.38-4.77,7.82-19.35,7.31-22.71-1.1-7.24-13.86,2.4-16.52,4.5-17.81,14.08-27.34,38.79-29.53,60.98-3.36,2.55-1.22-1.05-2.2-1.8-.61-.47-2.1.06-2.6-.39-.62-.55-.08-7.07-4.7.19l-.5-5c2.88-22.32,13.45-41.13,29-57-.27-1.78,2.34-3.64,4-4,5.07-2.16,12.09-8.4,17-10Z"/>
      <path class="cls-53" d="M136.03,258.21c41.54,2.59,68.03,35.22,104.75,48.75,13.82,5.09,28.46,7.99,43.24,7.26.49,2.01-1.61,3.67-2,4.99-7.01,4.38-19.34,1.87-27.48-.09-24.36-8.09-47.4-19.52-69.1-34.29-17.58-10.44-35.47-17.67-56.04-19.05-16.34-1.1-19.77,1.05-27.05,14.54l-2.32-.11c-1.64,2.28-2.98,2.95-4,2,2.5-5.67,6.29-14.26,10-19,1.26-1.61,3.86-2.8,4.71-5.02,8.38.41,16.94-.5,25.29.02Z"/>
      <path class="cls-162" d="M215.03,248.21c2.7,3.31,1.37,4.48-2,2-24.67-26.53-65.06-47.91-101.46-50.04l-33.54.04c1.21-1.78,1.89-5.96,4.69-6.81,37.85-1.7,71.52,3.51,102.21,26.41,11.76,8.78,19.85,18.62,30.1,28.4Z"/>
      <path class="cls-168" d="M313.03,273.21c.71.77,2.08,1.2,3.04,2.47,1.2,1.6.26,4.25,2.96,3.53l1,1.16c-1.27,10.21,1.07,18.88,7.03,26.02l-.03,2.82c-2.62,1.8-9.02,3.09-12.55,2.33-.59-1.29-2.07-1.73-4.45-1.33-2.26-1.16-2.33-1.5-4-3-7.19-9.2-8.28-19.78-6-31,5.74.3,9.58,3.1,13-3Z"/>
      <path class="cls-176" d="M281.03,288.21c3.36,1.83,5.3,9.21,5,13-18.71-.76-25.13-.31-43-7,4.3,1.73,9.32-4.72,10.55-8.02.72-1.92-4.03-2.89-2.55-4.98l1.83-1.1c8.84,4.14,18.62,6.92,28.17,8.1Z"/>
      <path class="cls-59" d="M299.03,231.21l.7,1.93c-2.8,5.11-2.92,11.16-2.76,16.86l-1.94,1.21c-.78-1.84-1.42-5.24-2.99-5.99l-3.5,10.98c-3.61-2.92-4.88-4.83-6.51-8.99,2.05-3.35-.95-7.32.03-11.31.14-.55,3.38-8.45,4.15-10.01,1.38-2.79,3.63-4.02,4.82-5.68,6.79-.4,3.9,7.55,8,11Z"/>
      <path class="cls-140" d="M281.03,288.21c-1.52,1.67-3.1.71-4.81.36-6.66-1.37-19.26-4.59-25.19-7.36-4.99-2.34-19.24-11.38-24-15-7.04-5.36-9.09-10.72-14-16,2.13.24,2.24.13,2-2,13.17,12.56,29.44,26.86,46.33,34.17,5.93,2.57,15.35,3.48,19.67,5.83Z"/>
      <path class="cls-170" d="M299.03,231.21c.47-.52,4.5-2.47,4.99-1.99.29,2.21-1.93,2.89-2.77,4.72-2.81,6.17-2.34,12.15-2.24,18.78l2.01,9.49c-3.34-4.1-4.03-6.35-6-11-.35-5.78-.11-15.5,4-20Z"/>
      <path class="cls-163" d="M92.03,256.21c.42.2,3-.54,1.99,1.48-.46.93-1.51,1.34-2.5,1.51-5.94,1.03-18.29.11-25.01.02-1.69-.02-4.44.64-5.49-1.02.07-.07-.94-1.44-.46-2.02,2.47-3.01,26.24,3.87,31.46.02Z"/>
      <path class="cls-169" d="M47.03,217.21c3.55-.02,6.55.21,10,1.01-1.59,3.21-6.9,1.91-10,1.99-4.32.11-8.68-.07-13,0,2.59-3.23,9.17-2.97,13-2.99Z"/>
      <path class="cls-11" d="M290.03,177.22c-3.09,5.98-1.28,12.66-2.49,18.99-3.24-4.97-4.95-17.33,2.49-18.99Z"/>
      <path class="cls-118" d="M28.03,242.21c5.47-.68,11.12-2.29,16.6-2.92,1.99-.23,2.04,1.31,1.41,1.91-.7.66-16.05,2.41-19,3.01l1-2Z"/>
      <path class="cls-113" d="M90.03,245.21c1.31.14,2.69-.13,4,0l3,2.99c-2.75-.3-8.44,2.75-9.99-.5-1.26-2.64,1.16-2.86,2.99-2.49Z"/>
      <path class="cls-14" d="M350.03,22.21c-.67,2.05-2.82,2.79-4,4-2.21-.55-.08-2.64.98-3.58,2.43-2.18,2.86-.35,3.02-.42Z"/>
      <path class="cls-164" d="M314.03,428.21c8.04,3.43,15.35,11.07,19,19,1.9,1.86,3.43,5.05,5.99,7.51,4.36,4.19,13.85,10.27,17.03,13.97,4.32,5.04,5.91,17.24,11.01,20.99,5.73,4.22,32.53,8.4,35.09,11.98.61.85-.18,5.03,1.35,8.59,4.79,11.15,17.33,22.14,22.53,33.46l-41.99,29.49c-32-27.51-65.49-12.8-82.17,22.33-3.96,8.33-6.05,17.01-8.83,25.67-7.8,8.72-5.11-3.34-3.54-9.84,5.19-21.38,17.96-45,36.92-56.45-31.89-1.36-63.86-1.93-95.9-1.69l-13.97,1.65-2.51-1.66c-2.2-.56-4.47-1.87-6.81-3.92-2.75-1.25-23.05-.8-25,.07-1.41,2.26-3.04,4.42-5.19,1.85-.8,3.13-9.49,4-11,1l-1.86-2.04c-.02-5.05,3.44-34.57,7.11-35.21l70.22-8.09c2.59.01,5.1.46,7.53,1.33,3.03.11,5.22.84,2.19,3.35-10.95,5.33-21,11.91-30.14,19.72,11.89,17.83,46.28-2.89,58.76-12.55,5.3-6.26,11.36-10.77,18.19-13.52l.69-2.18c15.84-1.68,24.3-13.55,20.93-28.86-16.38-23.32-34.31-48.25-55.8-67.67-17.84-16.12-24.34-15.48-47.04-10.38-40.19,9.03-78.99,30.39-114.31,51.72-2.23,14.91-5.64,29.47-10.21,43.69-10.5,21.66-17.85,44.79-23.09,68.06l-2.16,1.63c-2.45-.47-14.15.64-15.01,0-.16-.12.1-1.44,0-2,2.18-9.64,2.6-19.15,4.98-28.52,7.23-28.41,21.27-57.46,31.99-84.73,49.77-32.88,105.1-57.46,163.47-70.72,2.58.17,12.83,9.11,15.56,11.45,15.05,12.9,31.72,27.87,45.99,41.51Z"/>
      <path class="cls-148" d="M301.03,374.21l2.46-.18c16.32,15.47,37.89,28,59.52,34.03-1.29-5.12-1.42-10.08-.39-14.88l2.42.02,1.98,1.52c-.61,14.4,2.62,15.64,15.44,18.77,17.52,4.28,36.01,6.77,54,8.21,6.41-7.11,13.74-13.15,21.98-18.12l2.61.62c2.22-.7,4.92-.57,8.11.38,3.93-1.71,6.89-1.84,8.89-.38,2.12.21,3.33,4.57,2,6l-12,4,.24,1.36c-11.84,9.79-24.38,20.48-32.71,33.84l-2.54.8c-.06.18-1.55.22-1,1.99,4.15.13,8.35-.17,12.51,0,1.21.05,3.72-.76,3.48.99-3.6.02-8.7.18-12.02,1.49-5.02,1.98-5.45,7.43-12.48,2.52-1.65-1.15-6.32-4.57-5.5-7-2.96-3.94,2.98-9.33,6.22-12.01-25.06-2.45-49.21-7.75-72.42-15.89l-1.79-2.11c-.69.27-1.39.5-2.1.59-2.64.36-21.48-9.15-25.49-11.44l-2.4-3.15c-1.7,1.13-2.7,3.46-3,7,1.96-.26,2.39.59,1,2,.39,3.13-.68,1.57-2.48,1.61-8.41.19-4.52-2.17-7.78-5.35-.97-.95-3.44-.89-4.27-2.23-1.55-2.52.75-14.46-2.48-16.02-.29.85-.62.84-1,0-3.86-.48-8.77-4.87-8-9,.2-2.11-.6-5.27.46-7.09.62-1.06,2.51.12,3.51-.38,2.44-1.24.74-4.89,5.03-2.52Z"/>
      <path class="cls-139" d="M259.03,333.21l1.39,1.67c-3.38,5.53-3.06,8.72.97,9.58,2.84,2.5,3.29,11.6-.48,12.37-5-.24-9.96-.12-14.88.39-4.81-.26-11.33-.99-16-2-37.26-8.09-58.76-33.63-91.73-45.77-14.43-5.31-26.44-5.83-41.81-5.28-1.9.07-8.67,1.84-9.46,1.05-.37-.37.36-3.33,0-4.01.59-1.43.78-2.89,2-4,9.37-10.61,32.61-8.48,46.1-5.74,22.33,6.71,43.87,15.87,64.62,27.47,17.41,8.1,36.28,13.56,55.67,12.5l3.61,1.77Z"/>
      <path class="cls-51" d="M365.03,379.21c2.09-2.25,3.69-.61,2,2,.79,2.57.73,10.84-2,12-3.09,2.46.84,16.14,0,17-1.4.17-2.7-.12-4.05-.44-15.4-3.58-50.05-23.03-59.94-35.56-1.96-2.49-4.64-6.23-6-9-1.89-3.85-3.07-7.67-3-12-.5-4.96,2.15-27.93,5.6-29.86.38-.21.87-.21,1.4-.14,13.73,27.47,33.63,45.44,64.11,53.15l1.89,2.85Z"/>
      <path class="cls-67" d="M350.03,420.21c-2.45,8.18-2.1,16.5,1.06,24.96l-2.06,1.04c-2.48-2.34-5.58-4.62-8-7l-2.76.1c-6.39-5.94-12.57-12.07-18.55-18.41l.31-2.69c-.4-.48-1.58-2.31-2-3-.37-.6-.74-1.35-1-2,.07-3.48,1.07-5.81,3-7,10.15,3.94,19.93,10.09,30,14Z"/>
      <path class="cls-148" d="M320.03,418.21c5.22,6.19,14.86,14.96,21,21-4.34,1.24-3.78,6.19-8,8-6.38-6.24-12.59-12.86-19-19-.75-3.54,3.66-5.78,4.01-6.79.61-1.8-1.33-3.83,1.99-3.21Z"/>
      <path class="cls-166" d="M292.03,384.21c2.57,3.13,5.56,5.78,8,9-.77,1.02-.09,1.41,1,2-.14,1.37-.23,2.14-1.49,2.98-1.8.11-21.03-17.6-24.51-19.98,1.2-2.34,7.33-4.8,10-4,2.33,2.39,2.74,5.52,4.56,7.98.8,1.09,2.01,1.49,2.44,2.02Z"/>
      <path class="cls-33" d="M28.03,565.21c.78-2.95.66-5.07,2.55-7.95.74-1.14,10.25-10.74,10.97-11.04,1.99-.83,1.48,1.37,1.52,2.51.2,5.96-2.61,9.46-4.04,14.48-.4,1.54-1.79,2.27-4.15,2.17-1.51,1.84-3.12,2.78-4.85,2.83-.58.95-1.12,1.82-1.01,2.99h-.98s-.01-5.99-.01-5.99Z"/>
      <path class="cls-26" d="M39.03,563.21c-2.7,9.5-4.6,19.48-10,28,.06-2.93-1.43-6.37-1-10.51s3.02-7.92,2-12.49c2.56-4.17,3.29-5.53,9-5Z"/>
      <path class="cls-91" d="M285.03,374.21c-2.67,2.34-6.4,4.25-10,4-1.06-.72-4.58-.51-5-2.99,5.91-.04,10.29-5.83,15-1.01Z"/>
      <path class="cls-78" d="M300.03,393.21c.36.05.79-.1,1,0-.05.66.07,1.35,0,2-3.45,2.61-6.79-2.81-1-2Z"/>
      <path class="cls-156" d="M543.03,345.21l.67,2.25c-1.98,3.51-17.93,13.57-22.67,10.75-3.32,1.23-4.02,4.43-2.1,9.6l-1.9,1.4-1.89,1.81c-14.55-.94-32.69,18.24-35.16,31.72l-1.94,1.47c-7.29,2.13-9.77,4.14-17,0-.71-2.42,1.42-5.34,4-5-2-3.14.93-8.84,2.98-12.19,3.28-5.35,8.66-11.83,14.02-14.81-.73-1.43-.11-2.44,1.85-3.04-26.6,3.2-53.65.09-79.81-5.18-.72-.15-1.39-.59-2.08-1.06s-1.34-1.09-1.96-1.72l3-4c-3.06.12-18.53-2.92-17.94-6.38.17-1.01,2.21-2.57,3.41-2.6,4.31-.13,6.22,8.44,12.52.98.3-.36.7-.64,1-1l2.19-.89c7.35,5.11,15.78,6.15,25.29,3.13l1.52,1.76c4.43,2.73,13.23,3.13,4-2-4.62-2.84,3.19-6.46,6.79-4.17,2.68,3.55,5.75,5.6,9.21,6.17,12.89,7.03,43.44,1.54,58-2,1.54,1.68,5.4,1.23,7.42.91,7.84-1.2,19.51-6.14,26.58-5.91Z"/>
      <path class="cls-70" d="M517.03,369.21c1.23-3.2,9.61-.32,9,3,3.49-2.21,9.58,5.98,10,10,1.44,2.08,2.2,4.61,3,7l.61,4.04c-4.62-.55-9.26-.77-13.9-.65l-1.71-1.39c-2.27-3.26-5.75-6-10-5.99,2.96,7.33,7.49,12.84,8,20.99-12.58,3.73-25.74,2.21-38.4-.22,1.39,3.42,1.2,5.83-.6,7.22-1.11-.78-2.28-1.87-3-3-1.3-2.05-1.79-3.55-2-6-.87-10.31,8.7-19.05,15.99-25.51,7.92-7.03,11.42-10.97,23.01-9.49Z"/>
      <path class="cls-123" d="M663.03,405.21c-1.89,3.27-5.47,4.29-6,0-5.88-.9-11.32-2.66-16.33-5.27l.33-2.73c.73-2.5,3.79-11.92.38-12.93-4.6-1.37-8.68,8.96-10.38,11.93-3.59-3.05-7.8-5.73-12.63-8.02-1.19,5.16-2.98,7.5-5.37,7.02-1.3-17.07,16.9-37.78,34.05-23.55,4.12,3.42,12.6,11.35,14.98,16.02,3.38,6.59,3.69,10.77.96,17.54Z"/>
      <path class="cls-2" d="M483.03,413.21l-1.99-9.99c12.3,2.9,25.41,4.62,37.86,1.85l1.12-3.85,2.01,5c.55,8.95-2,15.71-12,17-6.5.84-21.57-6.18-27-10Z"/>
      <path class="cls-117" d="M622.03,440.21c1.01.62,7.09,5.88,5.99,7-5.5-1.57-11.31-.97-16.99-1-9.5-1.97-18.85-4.62-28.04-7.95-4.86-.46-9.51-1.15-13.96-2.05-2.57.66-6.25,1.28-9.21,1.31-.68,0-.94-1.31-.79-2.31,20.19-9.38,44.02-6.79,63,5Z"/>
      <path class="cls-5" d="M545.03,427.21c-3.08,2.48-8.44,4.91-11.91,7.59-8.44,6.5-10.31,12.49-21.76,13.36-1.38.1-2.19-.94-2.32-.94.19-2.63,1.19-9.95,3.02-11.48,1.16-.97,9.29-3.24,12.2-4.8,9.02-4.83,20.62-12.13,24.79-21.71,1.57-.27,1.08,1.43,1.03,2.52-.1,1.96-.85,10.81-1.2,11.82-.15.44-3.1,3.05-3.85,3.66Z"/>
      <path class="cls-95" d="M587.03,398.21c-2.18,5.92-2.07,11.91-1.42,18.05l-20.09,2.98c-.82,0-1.57-.27-2.05-.97-1.1-1.59,1.69-20.06,4.06-20.06h19.5Z"/>
      <path class="cls-141" d="M605.03,380.21c-.25,2.36.56,7.41-1.46,7.77-1.23.22-9.63-2.34-12.16-2.65-10.15-1.25-19.51-1.43-29.63.14-2.39.37-8.82,3.1-10.14,2.68-2.26-.7-1.74-5.99-2.61-6.94.42-.65.87-1.26,1.42-1.78,5.26-5.02,47.51-5.41,53.04-.88.58.47,1.07,1.05,1.54,1.66Z"/>
      <path class="cls-117" d="M605.03,380.21c-18.38-3.68-37.97-4.27-56,1-.26-.29-6.09-1.91-3.99-4.98,1.58-2.3,25.98-5.02,30.44-5.07s29.07.75,30.44,4.69c.92,2.63-.84,3.82-.89,4.36Z"/>
      <path class="cls-120" d="M673.03,420.21c9.02,9.7,20.66,17.17,32.32,23.98.58,3.23.31,3.58-2.66,2.61-4.88,2.09-12.35,2.01-16.74.04l-3.93.36c-1.33,0-2.67,0-4,0-1.75-7.71-8.71-21.1-6-28,1.64-1.29,2.17-.73,1,1Z"/>
      <path class="cls-97" d="M543.03,345.21c1.02.03,2.41-.52,3.11.58.83,1.32,3.13,13.34,2.76,14.7-.57,2.13-9.15,6.49-11.87,6.71-2.6.27-7.52-3.4-8-6-1.92,3.08-9.74.94-8-3,6.37-1.55,17.7-7.81,22-13Z"/>
      <path class="cls-131" d="M677.03,417.21l49.99,30.02c.79,2.82-2.07,2.15-3.99,1.98-3.45-.31-4.3-1.16-7-3-1.87-.13-3.8-.33-5.47-1.23-12.68-6.8-27.09-15.21-37.53-24.77-.23-.15-.42-.93-1-1,1.3-3.33,1.04-3.56,5-2Z"/>
      <path class="cls-12" d="M629.03,431.21c-6.48-3.3-12.7-7.1-19.32-10.18-2.56-1.19-7.19-1.55-8.74-3.26-2.78-3.06-2.1-10.42-.96-14.11,1.44-4.68,3.2,2.65,4.6,4.48,3.97,5.23,9.7,9.31,15.13,12.87s13.85,5.12,15.31,13.19c-2.14-.95-3.95-1.95-6-3Z"/>
      <path class="cls-79" d="M613.03,395.21c3.06-2.36,1.31-9.63,6.46-9.05,2.22.25,7.88,6.35,11.53,6.09v3.97c-.45.81-.77,2.5-1.54,3.92-.69,1.27-4.63,7.31-5.89,7.12-4.94-2.4-10.1-6.14-10.55-12.04Z"/>
      <path class="cls-23" d="M657.03,405.21c1.21,0,3.87,2.2,6,0-3.88,9.63-19.55,19.9-27,10-1.57-9.76,8.63-10.31,16.21-10.01,1.83-1.48,3.43-1.48,4.79.01Z"/>
      <path class="cls-17" d="M539.03,389.21c3.16,9.44,2.59,14.45-6.49,20.02l-8.51-18.02c4.26-2.39,8.88-.25,13.22.29,3.34.42,1.66,1.05,1.78-2.29Z"/>
      <path class="cls-111" d="M650.03,438.21c-.38-1.18-1.33-6.13-.88-6.87.48-.78,7.71-2.96,8.79-2.03.67.58,4.51,13.79,5.09,15.9-6.79.36-10.76-.09-13-7Z"/>
      <path class="cls-93" d="M641.03,397.21c-.71,2.3,4.45,3.03,6.01,3.5,3.63,1.09,7.64.27,9.99,4.5-1.77.01-2.93,1.76-4.54,1.96-7.76.94-13.58-2.12-16.46,8.04-.75-1-2.12-1.64-1.81-3.31,2.82-4.45,5.35-9.66,6.81-14.69Z"/>
      <path class="cls-156" d="M537.03,367.21l-1,15c-.75-1.07-9.05-9.43-10-10-1.84-2.21.69-9.57,3-11,3.56,1.32,6.04,2.33,8,6Z"/>
      <path class="cls-161" d="M559.03,435.21c2.19,1.7,7.01,1.15,10,1,.87.28.86.62,0,1-.11.85-.5,1.7-1.37,1.94-7.05,1.97-13.87,4.06-20.63,7.06-.73.13-7.82,2.35-4.99-.98.42-.5,9.43-6.07,10.99-7.02,2.36-1.43,3.65-1.91,6-3Z"/>
      <path class="cls-84" d="M530.03,330.21c3.28,1.51,6.05,3.05,4,7-.76,1.09-1.28,1.28-2,2l-2.02-4.99c-3.35.31-4.24,4-7.71,4.8s-4.18-.73-5.27-.81c7.44-.92,13.65-6.58,12.05-14.46l.95-.54c.28,2.15-.4,5.02,0,7Z"/>
      <path class="cls-74" d="M534.03,337.21c.94-3.16-3.41-4.1-4-7,5.98.02,7.4,2.15,4,7Z"/>
      <path class="cls-100" d="M536.03,71.21c-.09.64.09,1.36,0,2-2.2,9.56-7.5,2.31-12.55,2.03-2.83-.15-5.96,2.08-9.45-.04,5.08-7.1,7.3-14.9,10-22.99,1.01-3.04,2.91-6.8,4-10l2.16,1.45c.75,6.26.89,12.58.43,18.95,2.14,2.9,3.95,5.77,5.41,8.59Z"/>
      <path class="cls-129" d="M344.03,65.21c1.87.9,2.87,2.24,3,4-1.39,6.53-2.79,18.77-3.04,25.46-.22,5.87,1.86,15.64,1.03,20.04-.28,1.49-1.73,3.47-2.98,2.5-1.16-.9-3.67-13.31-3.89-15.63-1.29-14.03.26-23.77,5.87-36.37Z"/>
      <path class="cls-110" d="M347.03,69.21c-2.46-.78-3.6-1.1-3-4,3.03-6.81,6.52-14.87,11.99-20-2.74,7.94-7.23,15.72-8.99,24Z"/>
      <path class="cls-181" d="M536.03,71.21c-11.33-6.76-6.92-12.78-6.92-22.5,0-2.25-1.14-4.41-1.08-6.5.13-4.83.51-18.98,1.93-22.57,5.04-12.84,18.14.15,22.48,6.67,13.43,20.18,15.32,53.76,6.09,75.89-.81-1.04-2.91-2.2-3.1-3.44-.45-2.97,3.29-16.28,3.59-21.06.78-12.73-4.19-41.17-13.95-50.01-9.26-8.39-4.86,14.87-5.05,19.02-.35,7.81-2.84,16.68-3.99,24.51Z"/>
      <path class="cls-134" d="M547.01,84.21c-1.99-.87-3.61-.9-3.07-3.45l4.08-17.54c1.04,7.1.42,13.96-1,21Z"/>
      <path class="cls-164" d="M691.03,458.21c11.96.25,25.3.39,37.54.96,24.17,1.12,40.3,11.33,62.19,19.81,6.85,2.65,21.99,6.15,27.22,9.78.52.36,2.45,2.05,2.05,2.44-24.45,6.2-49.83,8.16-75,10.01-3.4-.07-6.74.26-10,1-3.97.17-8.02-.02-12,0l-10,1c-3.32.02-6.67,0-10,0-4.65.53-9.3,1.01-13.97,1.34s-9.3.64-13.95.66c-46.4.16-92.87-.29-139.25-1.39-4.64-.11-9.28-.52-13.92-.96s-9.28-1.02-13.91-1.66c-1-.02-2,0-3,0l-16-1c-.33,0-.67,0-1,0l-11-1c-8.76-.35-17.64-1.36-26.4-2.1-19.18-1.63-37.9-2.98-56.6-8.4-3.34-.97-17.27-4.77-18.95-6.05-2.94-2.22-4.56-12.12-7.05-15.44,5.56.85,11.22-.84,16.46-1.05,102.06-4.15,204.12-10.11,306.54-7.96Z"/>
      <path class="cls-99" d="M445.03,506.21c1.12-.04,4.75.2,5,0,.5-.43-2.01-3.26-.02-4.51,3.38-2.14,21.31-.79,26.52-.48,10.43.62,18.91,2.44,30.02,1.99,2.46-.1,3.26.71,1.49-2,65.07,1.58,129.8,2.1,195,2-.49,2.18,1.04,2.44,2.72,2.74,5.52.98,12.09-1.55,16.28,2.77.37.85-1.19,2.49-1.5,2.49h-18c-.17,0-2.92.98-2.49,1.99,6.32,0,12.68.02,18.99.01l-30.45,2.05c-77.24-.13-154.29.06-231.04-7.05-3.82-.35-8.92-.88-12.5-2Z"/>
      <path class="cls-76" d="M751.02,448.2l-23.99-13.98c8.77,1.62,26.28,1.1,23.99,13.98Z"/>
      <path class="cls-99" d="M735.03,512.21c-2.3,1.83-6.86.98-10,1,2.31-1.85,6.85-.96,10-1Z"/>
      <path class="cls-99" d="M745.03,501.21c-2.99.22-6.31.85-10,1,2.37-2.13,6.86-.57,10-1Z"/>
      <path class="cls-99" d="M723.03,502.21c-2.3,1.83-6.86.98-10,1,2.3-1.83,6.86-.98,10-1Z"/>
      <path class="cls-174" d="M282.03,319.21c-.67,2.29-2.78,7.93-3,9-1.37,3.26-14.49,7.11-17.55,6.73-1-.12-1.78-.97-2.45-1.73-64.96,5.38-99.02-53.69-162.06-39.56-1.82.41-6.77,2.49-7.94,3.56.09-.64-.14-1.44,0-2,2.93-5.54,6.6-10.54,11-15,4.09-6.02,7.92-15.2,15.5-16,51.2-5.4,82.84,32.23,126.23,48.76,13.75,5.24,25.44,7.39,40.27,6.23Z"/>
      <path class="cls-19" d="M89.03,295.21c.78-3.09,4.56-11.19,7-13,.74-.55,3.12-.75,4-2-2.67,3.93-5.36,7.61-7.71,11.79-.85,1.51-.5,3.43-3.29,3.21Z"/>
      <path class="cls-68" d="M350.03,420.21c24.63,9.56,51.94,12.65,78,16.01,1.03,1.06-5.35,5.78-6.4,7.08-2.04,2.52-2.39,4.98-3.59,6.91-.81,1.3-1.85,2.68-3.49,3.01-6.19,1.24-17.92-.38-25.05-.05-6.55.31-28.67,3.59-33.01,1.1-2.15-1.24-5.45-6.17-7.45-8.05.57-4.46-2.99-9.5-3.01-13.48-.01-2.03.69-13.14,4.01-12.52Z"/>
      <path class="cls-181" d="M468.03,414.21c1.83,4.94,4,9.99,7.6,13.92,1.02,1.12,2.76.7,2.39,2.06-2.54-.23-3.32,4.78-3.99,7.02-2.11.04-3.56-1.46-4.36-4.48l-7.95,16.48-2.69,1c-1.31.09-3.12.95-5.45,1.04-6.4.25-14.47.57-20.55-1.04,2.9-8.44,26.61-32.11,35-36Z"/>
      <path class="cls-10" d="M716.03,446.21c-1.82.64-7.3,2.79-8.68,2.8-1.61.01-2.62-2.2-4.61-1.7-1.17.29-2.42,2.46-3.97,3.14-2.06.91-9.99,2.76-11.3.8-2.15-3.21,2.83-4.06-5.44-4.04,5.92-2.08,13.2-.67,19.52-1,1.13-.06,2.74.65,2.48-.99-7.38-3.37-14.22-7.91-20.47-13.04-3.57-2.93-10.09-7.43-10.53-11.97,14.21,9,29.23,16.6,43,26Z"/>
      <path class="cls-62" d="M611.03,446.21c-11.98-.06-24.02-.03-36,0l-2.4-.76c-.79-2.95-1.99-5.7-3.6-8.24v-1c2.13-.11,4.06-1.27,7.49-1,11.3.88,23.97,7.06,34.51,11Z"/>
      <path class="cls-173" d="M569.03,437.21c4.79.61,4.51,5.5,6,9-7.45.02-22.11-1.05-28,0,4.13-4.21,16.31-9.72,22-9Z"/>
      <path class="cls-18" d="M474.03,437.21c-1.25,4.21-1.47,8.76-3.13,12.87-3.92.48-7.95-.15-11.87.13l10.01-20.99c2.75,1.58,3.48,5.51,4.99,7.99Z"/>
      <path class="cls-106" d="M493.03,436.21c.54,3.21-1.74,8.58-4,11-1.03.84-1.9,2.38-3.51,2.99-2.17-6.01,3.35-11.12,3.51-16.99,2.23-.44,2.94,1.68,3.99,3Z"/>
      <path class="cls-112" d="M435.03,513.21c2.1,2.82-.24,5.87,0,9-1.95-2.5-3.27-5.63-6.05-7.45-2.56-1.67-5.97-2.28-8.95-3.55,5.11-.08,9.98,1.36,15,2Z"/>
      <path class="cls-92" d="M493.03,436.21c.7.88,2.4.5,1.83,3.23-.09.45-3.35,6.57-3.78,7.1-.79.94-1.88.54-2.05.67,1.51-3.49.68-9,4-11Z"/>
      <path class="cls-99" d="M505.03,501.21c-5.09-.03-11.52.86-16-1,5.09.02,11.53-.86,16,1Z"/>
      <path class="cls-99" d="M488.03,500.21c-3.46-.01-8.36.84-11-1,3.51.14,8.31-.93,11,1Z"/>
      <path class="cls-36" d="M576.03,628.21c3.15,2.38-2.23,8.25-5,5-2.96,2.52-7.21,3.39-12.73,2.6-3.74-.08-5.56.72-6.89,4.38l-2.38.02c-10.78,13.88-21.18,30.33-33.97,42.53-11.61,11.08-24.79,9.89-38.58,14.42-3.15,1.03-16.93,9.19-18.45,8.04,1.68-6.7,4-13.23,5.51-19.98,4.08-18.21,6.22-42.6,12.43-59.57,2.02-5.52,6.5-8.86,12.06-10.44,17.45,1,37.02,3.53,54.36,6.14,11.32,1.71,22.63,3.76,33.64,6.86Z"/>
      <path class="cls-83" d="M576.03,628.21c1.47-1.29,11.56-5.31,13.72-5.77,8.06-1.73,15.72,5.81,15.22,13.72-1.66-.44-2.88.78-3.94,1.05-3.72.96-8.22.52-11.92,2.58-3.11,1.73-6.82,7.75-9.08,10.42-2.67,1.18-7.59-4.04-9.46-6.33-3.63-4.46-5.7-7.66.46-10.67,3.89-.81,4.33-4.42,5-5Z"/>
      <path class="cls-98" d="M347.77,631.44c8.66-1.39,22.06,6.74,25.03,15.1-3.69,5.34-9.99,25.53-14.24,28.77-2.39,1.83-5.11-1.28-7.99-1.09-4.82.33-3.93,6.1-10.6-.48l-14.76-17.85c2.04-8.99,13.16-22.96,22.55-24.46Z"/>
      <path class="cls-8" d="M352.77,720.43c1.56-.26,2.96-.5,4.53-.04,3.23.96,19.92,25.99,20.25,29.7.4,4.58-14.31,13.43-19.12,14.03-10.61,1.31-20.96-9.13-26.21-17.43,7.54-6.03,10.54-24.58,20.54-26.26Z"/>
      <path class="cls-172" d="M381.04,661.22c1.5.23,2.22,3.42,2.74,4.74,5.86,14.99,7.51,30.64,6.23,46.73-.21,2.64-3.88,23.5-5.48,23.5l-18.38-24.6c-.85-1.16-.98-2.47-1.15-3.85-.25-2.1-.84-19.54-.57-20.53,1.93-7.11,16.78-16.56,16.61-25.98Z"/>
      <path class="cls-41" d="M327.74,730.9c-.63.57-1.62.64-2.22,1.28-8.36-18.38-9.92-40.01-6.48-59.98,3.08,1.94,19.28,14.38,19.58,16.45-2.43,6.94,1.4,15.28.17,21.81-.49,2.62-9.18,18.75-11.04,20.43Z"/>
      <path class="cls-146" d="M349.73,686.37c9.18-2.8,13,18.15,4.85,22.89-9.32,5.42-13.29-20.32-4.85-22.89Z"/>
      <path class="cls-94" d="M668.03,653.21c-1.6-6.34-.74-11.51-1-18,2.28,5.36.41,12.27,1,18Z"/>
      <path class="cls-94" d="M772.03,641.21c-1.98-3.04-.8-8.15-1-12,1.74,2.9,1.12,8.33,1,12Z"/>
      <path class="cls-46" d="M298.03,505.21l-8.23,3.45c-2.87.97-4.63.49-5.27-1.45-.21.78-.54,1.94-1.15,2-2.68.26-20.19.27-21.18-.67-.34-.32-.52-.8-.67-1.33-2.54,3.89-9.35,2.73-12.5,1-25.69,2.07-51.28,6.69-77.04,8.46-.9.59-1.48,3.11-1.72,4.28-1.77,8.65-3.7,22.47-4.25,31.25l1.69,6.23c-1.61,38.81,6.14,77.07,15.11,114.6,23.9,1.18,47.69,3.44,71.36,6.77l1.83,2.4c5.64,1.19,13.46,5.42,18,9,.42.33,1.32,1.37,2,2l-.88,1.92-85.75-8.57,9.09,21.29,83.85-5.41c1.29.25,2.52.84,3.7,1.76,2.18,2.74,3.99,1.93,2.79,7.28-1.85,8.25-14,5.31-20.28,5.73-24.98,1.67-48.99,3.22-74.05,3.95-14.31.42-36.23,3.8-49.46-1.96-10.39-4.52-21.41-20.55-27.42-30.08-13.7-21.71-29.31-51.1-40.76-74.24-1.83-3.71-5.81-11.76-6.59-15.41-1.51-7.11-3.49-30.98-3.23-38.27.3-8.56,11.47-41.78,14.96-51.54,3.05-8.53,7.95-16.05,10.75-25.25,3.76-12.35,4.86-25.33,8.24-37.76,27.64-17.82,60.28-34.87,91.51-45.49,12.44-4.23,39.75-12.62,51.74-9.67,19.45,4.79,52.79,47.94,65.21,64.78,3.27,4.43,9.57,12.6,12,17,2.98,5.41-.65,18.1-3.95,22.88-3.54,5.12-13.6,7.88-19.46,9.04Z"/>
      <path class="cls-49" d="M177.03,551.21l1.49,1.52c-.28,6.71.08,13.18,1.08,19.42,10.44,1.56,40.13.59,33.27-16.73l1.16-2.21c5.42-.77,12.06-1.8,17.46-2.04,24.02-1.06,48.27.98,71.99.99,8.9,0,17.71.1,26.54,1.05,1.75,1.46-8.43,7.13-9.47,8.02-16.92,14.26-28.15,40.42-31.52,61.97l3.99-2c-.69,2.15-2.19,7.68-4,8.51-1.99.92-4.25.13-6.26.72-1.61.47-2.59,2.23-4.36,2.48-1.05.15-2.46-.82-3.68-.55-2.86.63-2.47,4.54-3.47,6.56-.76,1.53-2.62,2.62-3.02,3.98-1.18,4.02.59,10.17-.42,14.58-.67,2.95-3.92,4.48-4.59,7.41-.75,3.3-1.42,6.59-2.16,9.84-.87,3.88,2.04,8.27-5.05,7.45-11.34-2.39-29.38-3.72-41.51-4.99-10.92-1.15-22.48-.59-33.01-2.99-10.47-39.39-18.01-81.01-15.48-122.02l11-1Z"/>
      <path class="cls-154" d="M276.03,693.21c3.64,3.35,6.93,7.14,10,11l-88.8,5.79-11.2-25.78,90,8.99Z"/>
      <path class="cls-58" d="M172.02,723.22l-9.99,1.98c-3.45-2.66,9.35-2.09,9.99-1.98Z"/>
      <path class="cls-16" d="M65.78,704.95c-1.77,1.7-7.3,1.82-9.33.33-.64-.47-8.35-12.77-8.37-13.56-.15-4.65,9.59-15.02,14.55-15.5,3.88-.38,11.84,3.37,12.44,7.54.27,1.88-7.96,19.92-9.28,21.19Z"/>
      <path class="cls-47" d="M85.02,747.21c-2.1.38-2.76-1.35-3.82-2.67-1.28-1.59-6.8-10.05-7.39-11.61-.53-1.39-1.9-19.68-1.59-20.96.86-3.53,8.02-10.36,8.82-14.76,1.35-.92,4.24,8.92,4.5,9.99,3.17,13.34,2.32,26.65-.52,40.01Z"/>
      <path class="cls-15" d="M63.16,739.29c1.09-.78,5.41,1.91,6.42,2.87.89.84,10.02,13.92,10.27,14.78.88,2.98-.7,4.99-2.41,7.19-6.35,8.18-15.74,6.43-21.41-1.42s-2.12-5.98.84-11.15c1.24-2.16,5.02-11.36,6.29-12.26Z"/>
      <path class="cls-28" d="M43.03,706.21c1.27-1.31,12.48,6.42,12.9,7.15.23.4-1.07,4.55-1,6.35.34,8.73,2.16,10.63-2.42,19.48-.83,1.59-4.36,8.61-6.55,5.43-.32-.47-2.93-10.35-2.93-10.91v-27.5Z"/>
      <path class="cls-88" d="M62.73,714.34c7.19-2.07,8.74,14.94,2.77,15.91-7.45,1.22-8.19-14.35-2.77-15.91Z"/>
      <path class="cls-73" d="M571.03,633.21l.6,1.09c-8,3.91,5.47,11.84,8.4,15.91-11.3,13.36-32.47,42.92-46,51l-2.61-.82c-1.99-5.83-4.59-11.34-7.8-16.53l.4-2.65c7.87-9.24,20.1-25.7,24.87-36.63.56-1.28,2.18-3.43.13-4.37,1.32-1.69,2.03-5.03,4.7-5.8,4.15-1.19,12.82-.27,17.3-1.2Z"/>
      <path class="cls-52" d="M534.03,701.21c-10.31,6.16-19.6,4.25-31,5-11.19.94-4.24-4.51,2-7,6.55-6.01,13.17-11.15,19-18,5.23,5.86,6.58,13.15,10,20Z"/>
      <path class="cls-143" d="M505.03,699.21c-1.28,1.17-7.36,5.67-6,6.99h4c-6.39.42-13.89,1.24-20.63,1.88-1.46.14-3.82,1.08-3.36-1.36l25.99-7.52Z"/>
      <path class="cls-35" d="M360.03,324.21c.02.17-1.31,1.11-.87,3.21,1.39,6.68,13.07,5.54,14.86,9.31,1.36,2.84-6.78.03-6.99,3.49-11.99-3.99-24.87-9.1-36-15l.16-1.33c2.9-1.11,2.09-4.5-2.41-10.15l1.26-2.52,2-1.23c5.74,2.93,13.19,4.45,16.62-2.43l2.38-.34c.54.63.76,3.84,2.99,4-.54-3.33.19-5.26,1.01-8l1.97,1.87c-.65,6.42,1.42,11.61,4.47,17.03l-1.44,2.1Z"/>
      <path class="cls-25" d="M451.03,352.21c-3.59,2.82-6.2-2.6-8.63-3.87-2.3-1.21-7.39-2.19-7.37,1.87.97,2.65-2.32,4.47-4,2-2.9.56-14.23,2.34-16.44,1.95-4.17-.74-9.21-3.43-12.56-5.95-6.18-4.65-9.6-9.38-9.01-17.51.11-1.5-.76-2.9,1.5-2.49,8.89,15.12,31.19,29.04,45.01,12.01,3.89,5.21,5.79,8.87,11.5,11.98Z"/>
      <path class="cls-115" d="M355.03,303.21c.48-1.61,1.21-4.43,2.99-5,3.42,20.07,17.35,31.27,38.01,26.01,2.08,1.55-9.8,6.1-11.03,6.46-9.93,2.9-18.7,2.84-24.97-6.47-.17-1.89-3.86-7.08-4.55-10.94-.6-3.37-.51-6.67-.45-10.06Z"/>
      <path class="cls-160" d="M351.03,307.21c-4.24,9.71-12.93,8.21-21,4-1.85,2.01-3.24.39-3-2-9.05-8.67-10.01-18.05-8-30,.16-.92-.12-2.03,0-3,2.82,1.07,1.71,5.05,2.67,7.82,3.23,9.37,9.23,18.99,19.51,21.49,3.02.74,8.44.08,9.82,1.68Z"/>
      <path class="cls-7" d="M423.03,171.21c4.45.46,17.69,6.06,19.5,10.03s-4.2,19.21-7.05,22.92c-2.64,3.43-8.16,6.57-12.45,7.05-16.67,1.87-26.77-8.37-25-25-3.73.14-6.7.38-10.08-1.42-2.63-1.4-7.34-6.54-3.21-8.36,2.24-.99,19.83-4.58,23.04-4.96,4.27-.51,11.01-.7,15.25-.25Z"/>
      <path class="cls-101" d="M371.03,158.21c4.79-.45-.58,5.83-1.19,7.31-2.94,7.12-5.27,14.44-7.81,21.69-.51-5.15-.71-6.53-6-7,6.48-7.59,6.49-15.56,15-22Z"/>
      <path class="cls-40" d="M400.03,361.21c29.31,5.46,59.11,10.39,89,5.01,1.76,1.6-5.55,5.75-7,5.99l-3.28,2.43c-35.78,2.07-71.24-1.72-106.38-11.36l-1.34-2.07-2.15,1.09c-10.66-2.11-65.01-24.39-65.15-31.53-.01-.51.12-1.03.3-1.55-3.02-3.44-2.72-8.42,2-5,22.28,21.01,64.83,31.57,94,37Z"/>
      <path class="cls-116" d="M279.03,328.21c-.85,4.17-1.12,12.14-1.04,16.55.06,3.86,1.59,7.53,1.05,11.45-10.92.79-22.02,1.6-33.01,1,2.08-2.41,14.17-.12,15.01-.99.3-.32.5-8.29.29-8.75-1.19-2.59-4.04-2.09-4.86-3.21-1.46-2,1.29-8.72,2.57-11.04,6.88-.57,13.39-3.32,20-5Z"/>
      <path class="cls-121" d="M327.03,309.21c2.58.93,2.48,1.73,3,2,1.29,5.41,6.59,7.59,4.99,14h-3.99c-2.94-1.56-17.26-9.44-17.78-11.61-.17-.7.91-2.29.8-2.38-.16-.13-2.22-.08-4.02-1,2.81-1.55,5.38-.23,8.05-.42,3.12-.23,4.59-2.15,8.95-.58Z"/>
      <path class="cls-64" d="M306.03,324.21c-3.88,1.16-3.2,1.34-2,5-1.83.16-3.5-1.84-5-6-4.63,4.93-6.9,23.4-7,30-.28-12.31.11-26.14,8.5-35.98.44,0,4.32,5.86,5.5,6.98Z"/>
      <path class="cls-102" d="M306.03,307.21c-6.21-5.58-6.72-7.96-8-16-.39-3.32-.54-6.68,0-10,.26-1.14.53-5.52,2-5,1.38,4.97-.42,9.52.28,15.22s2.37,7.62,4.88,12.11c.4.71,2.56,3.43.83,3.67Z"/>
      <path class="cls-10" d="M298.03,291.21c-.8-5.07-1.27-4.47,0-10v10Z"/>
      <path class="cls-136" d="M298.03,505.21c-6.44,3.51-10.46,9.91-16.08,14.42-11.64,9.31-49.1,31.16-60.9,15.08-.77-1.04-2.12-2.52-1.86-3.85.81-4.13,27.02-19.31,32.34-21.65l-2.49-1c3.15-.25,9.38-1,12.5-1h23c2.53,0,10.49-1.41,13.5-2Z"/>
      <path class="cls-152" d="M214.03,553.21c5.89,11.3-2.09,18.03-12.64,19.86-4.55.79-14.65,2.13-18.91,2-8.28-.24-5.59-9.25-5.54-13.47.03-2.11-1.3-8.51.09-10.39.18-.25,2.94-.29,3.66-4.05,10.8,1.84,26.88-6.35,33.34,6.05Z"/>
      <path class="cls-4" d="M367.03,381.21l3.78-.75c27.43,9.42,56.37,16.8,85.46,14.48,6.59-.8,9.52.62,8.77,4.27-1.3,2.76-1.3,3.02-4,5-4.12,3.02-9.36,5.33-13.47,9.03s-7.74,10.9-12.89,10.89c-12.17-2.47-24.67-2.87-36.86-5.2-5.61-1.07-22.73-4.75-27.05-6.95-6.27-3.19-5.78-12.72-5.73-18.77.04-4.28-.69-8.3,2-12Z"/>
      <path class="cls-122" d="M320.03,406.21c-.25,2.5-.5,5.84-3,7-.74-1.83-1.62-6.86,0-8,1.17-.82,2.44.78,2.99,1Z"/>
      <path class="cls-171" d="M482.03,372.21c-3.56,6.14-9.25,10.37-12.81,16.69-1.94,3.45-2.64,7.02-4.19,10.31-.95-1.93-1.4-1.9-3.41-2.07-8.32-.68-17.61.61-26.08.06-21.05-1.36-48.71-8.64-68.51-15.99-.13-.05-.83-1.56-2-2-.7-.34-1.72-.91-1.62-1.46.28-1.48,4.71-15.22,5.28-15.84s1.5-.67,2.34-.7c.36.22,3.76-.15,5.24.24,30.74,7.94,74.37,16.16,105.76,10.76Z"/>
      <path class="cls-125" d="M304.03,329.21c10.32,10.04,38.5,22.37,52.48,27.02,5.96,1.98,9.98,2.24,14.52,4.98l-6,18c-20.45-7.78-37.34-11.84-51.41-30.09-5.47-7.09-12.57-17.28-14.59-25.91.08-.08-.13-1.17.99-1,.42,3.23,1.89,4.93,4.01,7Z"/>
      <path class="cls-6" d="M521.03,358.21c1.79,2.66,5.72,2.15,8,3,.35,3.78-1.32,7.66-3,11-1.39-.83-7.27-2.78-9-3,0-3.45-3.1-10.56,1.75-11.88,1.31-.36,2.13.91,2.25.88Z"/>
      <path class="cls-130" d="M435.03,350.21c8.31-1.57,8.98,9.04-2.5,4.99-1.92-.68-3.21-.85-1.5-2.99,1.2-.23,2.8-1.77,4-2Z"/>
      <path class="cls-182" d="M513.03,632.21c.91.91-4.82,15.28-5.83,17.68-2.23,5.3-10.77,23.58-14.81,26.19-1.72,1.11-12.12,5.29-13.37,4.12l10.04-50.94,23.96,2.95Z"/>
      <path class="cls-54" d="M156.03,554.21c-2.62,40.91,5.57,81.54,14.99,121-9.66-1.51-20.07-1.64-29.99-1.99.36,1.39,1.83,2.32,3,2.99,3.57,2.13,3.11,5.5-1.37,10.12-.88,6.57-3.09,9.87-6.63,9.88-16.4-19.22-34.55-55.76-46.38-79.12-9.93-19.62-15.14-38.84-11.62-60.88,4.52,0,6.85,1.33,7,4,1.57,1.41,2.14,3.56,1.72,6.46-.76,15.28,9.84,15.13,21.79,11.97,10.59-2.8,11.27-13.2,3.83-20.13l.66-2.3c13.89-3.46,28.85-4.1,43-2Z"/>
      <path class="cls-164" d="M78.03,556.21c.59-3.72,1.5-7.37,2.5-11,.77-2.77,6.68-21.19,7.51-22,2.23-2.17,2.39,3.88,3.61,4.07l68.87-9.09c1.82-.1-4.3,33.1-4.49,36.01-14.3.99-28.67,1.59-43,2l-2.13,2.02c-8.77-.5-17.8-.64-25.87,1.98-2.95-1.37-4.4-2.48-6.99,0v-4Z"/>
      <path class="cls-153" d="M165.03,463.21c-1.33,7.81-2.88,15.77-3.87,23.63-.42,3.33-.85,21-2.79,21.41l-57.33,5.95c3.28-12.15,5.27-24.61,8-36.99,2.28.94.56.55.59.42,1.17-5.07,43.82-14.53,51.52-15.63l3.89,1.21Z"/>
      <path class="cls-21" d="M221.03,485.21c-.83-5.62-1.26-18.3,3.85-21.64,4.08-2.66,49.2-.55,56.14,1.93-.23-1.75.08-2.79,2-3.3,2,9.02,1.98,23.59-2.64,31.86-13.95-.84-28.94-.15-42.74-1.99-6.52-.87-13.33-1.02-16.62-6.88Z"/>
      <path class="cls-128" d="M260.03,417.21c7.84,7.87,14.76,16.47,23,23.99-9.45.4-19.05-.51-28.49.02-8.9.5-33.77,2.98-40.45,7.55-1.59,1.09-6.25,5.84-7.06,7.44-1.28,2.96-10.11,2.2-11-1,.94-6.74,1.85-13.29,3-20l1.57-2.55c18.78-5.54,37.56-11.08,56.35-16.63l3.09,1.17Z"/>
      <path class="cls-48" d="M111.03,469.21c1.95-7.72,2.23-16.44,7.46-23.04l53.07-24.94c2.25-.65,1.56,1.92,1.36,3.36-1.18,8.74-4.25,18.74-5.89,27.61-32.8,11.3-49.2,16.95-49.2,16.95-4.69,4.47-6.95,4.48-6.8.05Z"/>
      <path class="cls-185" d="M260.03,417.21l-61,18c1.44-8.4,2.53-16.88,3.99-25.26.55-1.01,18.95-5.91,21.8-6.44,18.32-3.43,23.02,1.47,35.2,13.7Z"/>
      <path class="cls-107" d="M144.03,676.21c5.17,2.97,14.79,5.39,20.75,6.75,3.05.69,6.62-.51,9.21,1.79l11.03,26.46c-3.56-.86-7.37.97-10.5,1-14.62.15-26.52-1.78-37.07-12.97-1.08-1.14-1.14-2.68-1.43-3.02,3.28-2.27,3.36-7.36,4.81-10.69,1.32-3.03,5.87-5.62,3.19-9.31Z"/>
      <path class="cls-60" d="M283.03,462.21v10c-2.2-.48-1.61-3.3-3.02-4.48-5.75-4.84-28.42-.98-36.5-3.6-5.59,1.78-12.56-.56-17.82,1.25-3.93,1.35-2.29,16.34-4.66,19.83-.46-.81-1.27-1.03-1.77-2.69-1.36-4.54-1.41-19.67,1.72-22.85,2.84-2.88,19.68-4.96,24.55-5.45,8.23-.82,23.27-2.1,31.04-1.06,4.95.66,5.54,4.94,6.45,9.05Z"/>
      <path class="cls-144" d="M207.03,456.21c-3.85,7.51-4.1,26.14-.2,33.7,1.93,3.75,5.55,4.98,7.53,7.25.77.88,1.07,2.63.68,3.04-1.32,1.38-20.24,1.24-23.55,2.76-2.74-.42.31-9.8.53-12.27,1.13-12.37,2.31-23.25,4.01-35.49l11,1Z"/>
      <path class="cls-65" d="M192.03,414.22c-8.5,29.46-9.01,60.71-13.18,90.82l-8.82,1.16,14.99-89.49c.55-3.56,4.22-2.42,7-2.49Z"/>
      <path class="cls-27" d="M167.03,452.21c-.68,3.67-1.37,7.31-2,11-17.89,3.9-37.12,6.67-53.47,15.03-1.98,1.01-2.79,2.17-2.53-1.03.62-2.81,1.31-5.27,2-8l1.5,2c1.88-2.28,3.52-3.53,6.22-4.78,8.97-4.15,33.48-11.5,43.8-14.28,1.64-.44,2.85-1.3,4.48.05Z"/>
      <path class="cls-147" d="M424.7,181.34c7.8-2.58,10.01,7.97,3.6,9.72-5.8,1.59-8.28-8.18-3.6-9.72Z"/>
      <path class="cls-150" d="M205.03,562.2c-.84.88-22.15,1.61-24.35,1.05s-1.75-4.08,1.9-4.98c4.49-1.12,23.95-3.68,22.45,3.93Z"/>
      <path class="cls-114" d="M113.03,556.21c5.58,6.45,9.14,11.27,3.84,19.34-3.26,4.96-5.95,4.74-11.46,5.54-3.61.52-13.86,1.69-16.34-.42-3.85-3.27-5.09-15.94-4.04-20.46.64-2.73,5.14-3.59,7.62-3.88,6.88-.83,14.12.06,20.38-.12Z"/>
      <path class="cls-85" d="M92.03,571.21l2.03-4.53c3.51.78,8.88-1.71,11.46-1.47,4.23.4,4.12,6,2.02,6h-15.5Z"/>
    </g>
  </g>
</svg>